<?xml version="1.0" encoding="UTF-8"?>
<svg version="1.1" xmlns="http://www.w3.org/2000/svg" width="980" height="980">
<path d="M0 0 C323.4 0 646.8 0 980 0 C980 323.4 980 646.8 980 980 C656.6 980 333.2 980 0 980 C0 656.6 0 333.2 0 0 Z " fill="#0EA982" transform="translate(0,0)"/>
<path d="M0 0 C1.49853516 0.37511719 1.49853516 0.37511719 3.02734375 0.7578125 C9.33388723 2.44862693 15.13683263 5.16417156 21 8 C21.90975586 8.42756592 21.90975586 8.42756592 22.83789062 8.86376953 C32.57493311 13.44348019 41.3779359 18.50822482 50 25 C50.89847656 25.67417969 51.79695313 26.34835938 52.72265625 27.04296875 C68.73022207 39.60855429 82.73230417 54.78418405 92 73 C93.25554687 72.72285156 94.51109375 72.44570312 95.8046875 72.16015625 C97.49472882 71.79398063 99.1848366 71.42811169 100.875 71.0625 C101.69742187 70.88009766 102.51984375 70.69769531 103.3671875 70.50976562 C127.67315566 65.28778028 154.28238355 66.61589273 178 74 C179.13566406 74.29003906 180.27132813 74.58007812 181.44140625 74.87890625 C198.49935362 79.41157216 214.49658906 88.74392861 228 100 C229.08403912 100.87183571 230.16870338 101.74289453 231.25390625 102.61328125 C258.02056023 124.35488204 275.72105386 156.71341976 280 191 C280.51103716 197.40744962 280.48662881 203.82658332 280.4375 210.25 C280.43243942 211.53676132 280.43243942 211.53676132 280.42727661 212.84951782 C280.35465498 225.60166924 279.81851328 237.74341132 276 250 C275.6299585 251.22807373 275.6299585 251.22807373 275.25244141 252.48095703 C272.20869552 262.37453251 268.47528636 271.76441292 263.57714844 280.88964844 C260.85646225 285.69793105 260.85646225 285.69793105 260 291 C261.68450167 293.17940088 263.282269 294.92225265 265.25 296.8125 C283.49277232 315.53019079 296.34314198 340.5769513 302 366 C302.25579834 367.10037598 302.51159668 368.20075195 302.77514648 369.33447266 C304.77169755 378.45676363 305.51066028 387.12857195 305.4375 396.5 C305.43243942 397.53465393 305.43243942 397.53465393 305.42727661 398.59020996 C305.16179647 436.36982587 291.98345905 469.5563135 266 497 C264.75283203 498.34384766 264.75283203 498.34384766 263.48046875 499.71484375 C252.76025136 510.90593453 240.34047104 518.80047692 226.73486328 526.06738281 C225.28965108 526.84429114 223.85954086 527.64921114 222.43359375 528.4609375 C201.79151323 539.73330843 177.10687084 542.8428038 154 542 C153.86867676 542.59675537 153.73735352 543.19351074 153.60205078 543.80834961 C151.08677714 555.19175284 147.37724061 564.82841348 141.96826172 575.14013672 C141.1462048 576.71916588 140.35309012 578.31320943 139.56640625 579.91015625 C133.15694473 592.51986837 123.72580135 603.81740955 114 614 C113.45472656 614.59683594 112.90945313 615.19367187 112.34765625 615.80859375 C97.02101998 632.03459254 75.85214025 643.13254581 54.9375 650.25 C54.25453857 650.48420654 53.57157715 650.71841309 52.86791992 650.9597168 C41.05016505 654.8088022 29.66809288 656.48884304 17.25 656.3125 C15.9417627 656.3019458 14.63352539 656.2913916 13.28564453 656.28051758 C-19.52762189 655.83227108 -51.58170922 646.60360089 -77 625 C-77.83144531 624.29488281 -78.66289062 623.58976563 -79.51953125 622.86328125 C-82.0677596 620.62806363 -84.54020918 618.33210703 -87 616 C-88.43666016 614.66001953 -88.43666016 614.66001953 -89.90234375 613.29296875 C-100.4408301 603.26077978 -108.9154381 591.70438315 -116 579 C-116.56203125 579.10957031 -117.1240625 579.21914063 -117.703125 579.33203125 C-120.79743183 579.91577318 -123.89842279 580.45615277 -127 581 C-127.68143066 581.12842285 -128.36286133 581.2568457 -129.06494141 581.38916016 C-169.41868463 588.92364643 -210.20125966 581.51799742 -244.40869141 558.515625 C-269.77533742 540.7337144 -291.62467146 512.89146075 -299 482.4375 C-299.4640625 480.54837891 -299.4640625 480.54837891 -299.9375 478.62109375 C-300.09903564 477.91484863 -300.26057129 477.20860352 -300.42700195 476.48095703 C-300.85737971 474.61751488 -301.31338505 472.75996186 -301.78198242 470.90576172 C-303.92172122 461.94461431 -304.44466936 453.43570188 -304.3125 444.25 C-304.3065683 443.55000885 -304.3006366 442.8500177 -304.29452515 442.1288147 C-304.09340445 418.70509087 -301.32110031 395.95843533 -289.87109375 375.078125 C-289.50089111 374.40168945 -289.13068848 373.72525391 -288.74926758 373.02832031 C-288.01422339 371.70220802 -287.26582912 370.38338556 -286.50268555 369.07324219 C-284.55642744 365.65650947 -284.55642744 365.65650947 -284.03125 361.83203125 C-285.32385185 359.38755437 -286.94737749 357.67343138 -288.875 355.6875 C-298.63082627 345.11094549 -306.3620626 333.41370712 -313.08349609 320.71875 C-313.85126105 319.27893506 -314.65049745 317.8559616 -315.45703125 316.4375 C-331.09475965 287.84279664 -333.99268543 247.43848959 -325.609375 216.2265625 C-315.03565125 180.62305911 -293.35053019 152.00045461 -262 132 C-260.96488281 131.32582031 -259.92976563 130.65164063 -258.86328125 129.95703125 C-246.62883409 122.39604276 -232.91535375 117.42735457 -219 114 C-218.30745117 113.81808105 -217.61490234 113.63616211 -216.90136719 113.44873047 C-203.84410295 110.05384177 -191.45320264 109.50293695 -178 110 C-177.9071875 108.87464844 -177.814375 107.74929688 -177.71875 106.58984375 C-177.08512457 101.5813427 -175.41666416 97.20865449 -173.5 92.5625 C-173.14470215 91.69286621 -172.7894043 90.82323242 -172.42333984 89.92724609 C-164.38749926 70.66718469 -153.84881722 54.36080143 -139.33837891 39.38525391 C-138.18428424 38.19073856 -137.04923142 36.97787918 -135.91796875 35.76171875 C-123.09063426 22.28626631 -106.17478305 11.93441945 -89 5 C-87.84177734 4.50113281 -87.84177734 4.50113281 -86.66015625 3.9921875 C-83.80625111 2.84701861 -80.93839607 1.90934197 -78 1 C-77.32291992 0.78279297 -76.64583984 0.56558594 -75.94824219 0.34179688 C-52.17388626 -7.00645433 -23.89961947 -6.71640588 0 0 Z " fill="#FCFEFD" transform="translate(502,164)"/>
<path d="M0 0 C0.33 62.37 0.66 124.74 1 189 C13.87 195.93 13.87 195.93 27 203 C34.00895328 206.79350564 41.01736457 210.5879114 48.0234375 214.38671875 C51.03581864 216.01941351 54.04902928 217.65056726 57.0625 219.28125 C67.61414703 224.9917029 78.15735362 230.71707574 88.68725586 236.4675293 C96.6548149 240.81667123 104.63524546 245.1418683 112.61914062 249.4609375 C119.08686916 252.96038483 125.5463345 256.47468424 132 260 C132 260.66 132 261.32 132 262 C130.0949707 263.38525391 130.0949707 263.38525391 127.42578125 264.9765625 C126.45374756 265.56171631 125.48171387 266.14687012 124.48022461 266.74975586 C122.91220093 267.67800171 122.91220093 267.67800171 121.3125 268.625 C119.19486326 269.88857033 117.07767298 271.1528892 114.9609375 272.41796875 C113.41937988 273.33715088 113.41937988 273.33715088 111.84667969 274.27490234 C109.46131913 275.72043903 107.11610733 277.20154249 104.7890625 278.73828125 C104.20729248 279.11839355 103.62552246 279.49850586 103.02612305 279.89013672 C101.55076996 280.86282225 100.08547925 281.85072345 98.62109375 282.83984375 C95.23136407 284.3402159 93.58001455 283.84752827 90 283 C87.34472656 281.74755859 87.34472656 281.74755859 84.640625 280.1484375 C83.11115234 279.25415039 83.11115234 279.25415039 81.55078125 278.34179688 C80.46152344 277.69275391 79.37226563 277.04371094 78.25 276.375 C77.09302648 275.69497822 75.93546287 275.01595953 74.77734375 274.33789062 C72.37334852 272.92932676 69.97194227 271.51649359 67.57226562 270.10058594 C62.0716512 266.85983022 56.53396591 263.68333677 51 260.5 C48.83315966 259.25030108 46.6664935 258.00030011 44.5 256.75 C43.4275 256.13125 42.355 255.5125 41.25 254.875 C29.33333333 248 17.41666667 241.125 5.5 234.25 C4.42717773 233.63108887 3.35435547 233.01217773 2.24902344 232.37451172 C0.08552524 231.12628966 -2.07788643 229.87791761 -4.24121094 228.62939453 C-9.70565017 225.47594744 -15.17163645 222.32523904 -20.640625 219.1796875 C-25.00164961 216.67134379 -29.35801615 214.15518974 -33.7109375 211.6328125 C-37.82717023 209.24785989 -41.95775606 206.89135998 -46.1015625 204.5546875 C-56.58289474 198.5896662 -65.59157575 192.68320936 -74 184 C-74.70640625 183.3503125 -75.4128125 182.700625 -76.140625 182.03125 C-90.17347963 168.99284963 -100.26300439 150.39533297 -105 132 C-105.5878125 130.1128125 -105.5878125 130.1128125 -106.1875 128.1875 C-111.86954304 105.89640809 -108.94595315 80.56274772 -99 60 C-98.57074219 59.10152344 -98.14148438 58.20304687 -97.69921875 57.27734375 C-85.23608152 32.87768073 -62.03789674 13.48425849 -36 5 C-23.9275751 1.44928679 -12.63011783 0 0 0 Z " fill="#0FA982" transform="translate(320,313)"/>
<path d="M0 0 C2.3581543 1.04711914 2.3581543 1.04711914 4.82421875 2.53515625 C5.75669434 3.08937256 6.68916992 3.64358887 7.64990234 4.21459961 C8.65230957 4.82440674 9.6547168 5.43421387 10.6875 6.0625 C12.86018566 7.35759561 15.03338004 8.65183809 17.20703125 9.9453125 C18.32932129 10.61723633 19.45161133 11.28916016 20.60791016 11.98144531 C25.99827379 15.18912679 31.43638249 18.31257357 36.875 21.4375 C39.06001428 22.69640903 41.24490947 23.95552477 43.4296875 25.21484375 C44.51475586 25.83987793 45.59982422 26.46491211 46.71777344 27.10888672 C52.14659942 30.23680148 57.57319281 33.36858448 63 36.5 C65.16665583 37.75001879 67.3333225 39.00001878 69.5 40.25 C73.83333333 42.75 78.16666667 45.25 82.5 47.75 C83.57266113 48.36883057 84.64532227 48.98766113 85.75048828 49.62524414 C87.91557071 50.87435518 90.08060982 52.12354129 92.24560547 53.37280273 C98.78065015 57.14355005 105.3173234 60.91145387 111.85522461 64.67724609 C115.09663643 66.54614642 118.3355437 68.41933071 121.57421875 70.29296875 C125.89944449 72.79399445 130.23649403 75.27273279 134.58203125 77.73828125 C155.01370508 89.38605645 155.01370508 89.38605645 163 97 C163.50499023 97.46164551 164.00998047 97.92329102 164.53027344 98.39892578 C185.70984771 117.80413075 198.72976204 144.18869355 200 173 C200.03931641 173.76924805 200.07863281 174.53849609 200.11914062 175.33105469 C200.73524797 188.72355759 199.27710234 200.2972632 195 213 C194.78069824 213.67256836 194.56139648 214.34513672 194.33544922 215.03808594 C185.98943001 240.05738846 166.7126311 259.96550324 143.53100586 271.92504883 C126.82459026 280.16462671 110.6877794 284 92 284 C91.67 221.63 91.34 159.26 91 95 C83.41 91.04 75.82 87.08 68 83 C55.87850043 76.41975737 55.87850043 76.41975737 51.58984375 74.0625 C45.77941063 70.87510923 39.95361247 67.71649676 34.125 64.5625 C33.12879639 64.02318848 32.13259277 63.48387695 31.10620117 62.92822266 C28.07096144 61.28518472 25.03551413 59.64253093 22 58 C-22.78689445 33.76560143 -22.78689445 33.76560143 -40 24 C-38.81837462 20.45512387 -38.14815324 20.20665829 -35.01953125 18.3984375 C-34.19138916 17.91213867 -33.36324707 17.42583984 -32.51000977 16.92480469 C-31.17474243 16.15765137 -31.17474243 16.15765137 -29.8125 15.375 C-27.98310513 14.30685944 -26.15498632 13.23653049 -24.328125 12.1640625 C-23.42384766 11.63329102 -22.51957031 11.10251953 -21.58789062 10.55566406 C-16.88959079 7.73136533 -12.36844815 4.64496325 -7.84765625 1.546875 C-4.72390129 -0.14997954 -3.47643069 -0.33806719 0 0 Z " fill="#0FA982" transform="translate(568,383)"/>
<path d="M0 0 C16.28878984 12.89815567 27.70503456 27.64971539 35.21484375 46.94921875 C35.6022876 47.93027588 35.6022876 47.93027588 35.99755859 48.93115234 C46.31146555 76.46802532 40.66282012 107.19180924 29.11279297 133.13427734 C28.21484375 134.94921875 28.21484375 134.94921875 26.21484375 137.94921875 C22.07486141 137.354223 19.12150112 135.97180044 15.515625 133.87890625 C13.8457251 132.91682251 13.8457251 132.91682251 12.14208984 131.93530273 C10.93710614 131.23172511 9.73219262 130.52802725 8.52734375 129.82421875 C7.27072559 129.0970796 6.01372069 128.37060842 4.75634766 127.64477539 C2.16856511 126.14954225 -0.41691314 124.65044025 -3.00048828 123.14794922 C-7.56684531 120.49302975 -12.14479742 117.85834959 -16.72241211 115.22290039 C-19.93237292 113.37392166 -23.14030839 111.5214759 -26.34765625 109.66796875 C-30.67924132 107.16492385 -35.01260228 104.66500102 -39.34765625 102.16796875 C-49.80228576 96.14482136 -60.24564067 90.1039943 -70.66015625 84.01171875 C-80.5053553 78.25359098 -90.39792872 72.58127866 -100.31225586 66.94335938 C-106.14091263 63.62538629 -111.9475492 60.27652258 -117.71875 56.859375 C-118.81509766 56.21162109 -119.91144531 55.56386719 -121.04101562 54.89648438 C-123.10982491 53.67094664 -125.17514144 52.43948688 -127.23632812 51.20117188 C-128.15865234 50.65525391 -129.08097656 50.10933594 -130.03125 49.546875 C-130.83232178 49.06742432 -131.63339355 48.58797363 -132.45874023 48.09399414 C-134.97909948 46.85378378 -136.98547851 46.19910967 -139.78515625 45.94921875 C-141.71286229 46.61022766 -141.71286229 46.61022766 -143.4453125 47.87890625 C-144.49017822 48.56424438 -144.49017822 48.56424438 -145.55615234 49.26342773 C-146.31234863 49.77848877 -147.06854492 50.2935498 -147.84765625 50.82421875 C-149.54759144 51.94038036 -151.24954268 53.05347543 -152.953125 54.1640625 C-153.8817334 54.77233887 -154.8103418 55.38061523 -155.76708984 56.00732422 C-160.73496849 59.20377356 -165.79439091 62.24774551 -170.85314941 65.29727173 C-173.87600174 67.11975375 -176.89513495 68.94836985 -179.9140625 70.77734375 C-180.50311371 71.13411697 -181.09216492 71.4908902 -181.69906616 71.85847473 C-187.01952407 75.08437043 -192.31281354 78.35290344 -197.59765625 81.63671875 C-204.70019707 86.04924483 -211.82596846 90.42104755 -218.97265625 94.76171875 C-227.5723539 99.98533726 -236.1539696 105.23744836 -244.72265625 110.51171875 C-245.80635498 111.17856689 -246.89005371 111.84541504 -248.0065918 112.5324707 C-249.55020386 113.48319458 -249.55020386 113.48319458 -251.125 114.453125 C-252.09550293 115.05012207 -253.06600586 115.64711914 -254.06591797 116.26220703 C-256.53007228 117.790965 -258.97239923 119.34979475 -261.4140625 120.9140625 C-264.78515625 122.94921875 -264.78515625 122.94921875 -266.78515625 122.94921875 C-267.2478278 114.06740164 -267.2478278 114.06740164 -267.37915039 109.69384766 C-267.54000327 104.38771843 -267.83968947 99.23338198 -268.625 93.98046875 C-269.3077286 88.46731762 -269.90712178 83.20638013 -267.78515625 77.94921875 C-262.86868974 72.38327779 -255.68394269 69.55945787 -249.06152344 66.51513672 C-243.52727877 63.87008118 -238.31162667 60.69351335 -233.03515625 57.57421875 C-230.83375556 56.30299887 -228.63061449 55.03478828 -226.42578125 53.76953125 C-219.87546733 50.00204301 -213.32988925 46.22639141 -206.78515625 42.44921875 C-204.61851127 41.19918117 -202.45184459 39.94918119 -200.28515625 38.69921875 C-199.21265625 38.08046875 -198.14015625 37.46171875 -197.03515625 36.82421875 C-185.11848958 29.94921875 -173.20182292 23.07421875 -161.28515625 16.19921875 C-160.21168945 15.57974365 -159.13822266 14.96026855 -158.03222656 14.32202148 C-155.87591102 13.07833001 -153.71901407 11.83564601 -151.56152344 10.59399414 C-145.98122738 7.38072569 -140.41332161 4.14804631 -134.86328125 0.8828125 C-91.72930505 -24.43282562 -42.68837812 -31.43253648 0 0 Z " fill="#0FA982" transform="translate(702.78515625,292.05078125)"/>
<path d="M0 0 C3.47953075 1.31260033 6.62361333 2.84039734 9.82421875 4.73046875 C10.75669434 5.27823975 11.68916992 5.82601074 12.64990234 6.39038086 C14.15351318 7.27995483 14.15351318 7.27995483 15.6875 8.1875 C17.86033348 9.46412666 20.03352265 10.7401481 22.20703125 12.015625 C23.89046631 13.0046582 23.89046631 13.0046582 25.60791016 14.01367188 C31.01565848 17.18032225 36.44460831 20.30988759 41.875 23.4375 C42.95354248 24.05906982 44.03208496 24.68063965 45.14331055 25.32104492 C47.33469138 26.5838442 49.52617907 27.84645807 51.71777344 29.10888672 C58.22871257 32.86028024 64.73663194 36.61690994 71.24511719 40.37255859 C76.68585336 43.51182246 82.12731477 46.64981497 87.5703125 49.78515625 C98.99243237 56.36660246 110.39649051 62.97689021 121.7746582 69.6340332 C131.14520599 75.10581229 140.56814401 80.48480283 150.00146484 85.84741211 C151.13148926 86.49073486 152.26151367 87.13405762 153.42578125 87.796875 C154.43036377 88.36760742 155.43494629 88.93833984 156.4699707 89.52636719 C158.3509888 90.621979 160.18876691 91.79251127 162 93 C165.65714102 92.66468215 168.20407853 91.50505868 171.2734375 89.55078125 C172.08619141 89.03966797 172.89894531 88.52855469 173.73632812 88.00195312 C174.60708984 87.44443359 175.47785156 86.88691406 176.375 86.3125 C178.2676364 85.12015233 180.16088728 83.92877957 182.0546875 82.73828125 C183.03405273 82.12033691 184.01341797 81.50239258 185.02246094 80.86572266 C189.81814595 77.86075178 194.6593479 74.93177256 199.5 72 C206.85528769 67.53486269 214.18977175 63.03852539 221.5 58.5 C229.76991288 53.36565832 238.07587389 48.29315411 246.39648438 43.24145508 C252.95224929 39.25728549 259.48258117 35.23404562 266 31.1875 C272.2166279 27.33362157 278.43456844 23.48228229 284.6875 19.6875 C285.6146582 19.11841919 285.6146582 19.11841919 286.56054688 18.5378418 C290.76794198 16 290.76794198 16 293 16 C294.32102947 30.97953064 294.09899707 45.97681343 294 61 C209.5 109.75 209.5 109.75 206.24951172 111.62524414 C204.08442929 112.87435518 201.91939018 114.12354129 199.75439453 115.37280273 C194.31384294 118.51202309 188.87252784 121.64990563 183.4296875 124.78515625 C182.3463916 125.40970703 181.2630957 126.03425781 180.14697266 126.67773438 C177.97336082 127.92980745 175.79856261 129.17982335 173.62255859 130.42773438 C168.28734069 133.49393303 162.98590182 136.60088215 157.734375 139.80859375 C145.55914451 147.20245842 133.81338993 153.32989038 120 157 C119.30455078 157.18626953 118.60910156 157.37253906 117.89257812 157.56445312 C89.72976837 164.679553 59.97516126 159.54693138 35.07495117 145.14648438 C12.66536759 131.73122346 -4.69980399 109.69947463 -11.22265625 84.3359375 C-11.47917969 83.23507812 -11.73570312 82.13421875 -12 81 C-12.22558594 80.08476563 -12.45117188 79.16953125 -12.68359375 78.2265625 C-18.28092243 51.2821803 -12.75075696 23.84795754 0 0 Z " fill="#0FA982" transform="translate(251,549)"/>
<path d="M0 0 C4.52089226 1.67269159 8.68346769 3.8671467 12.92578125 6.1328125 C13.67337204 6.52951141 14.42096283 6.92621033 15.19120789 7.33493042 C17.56624432 8.59590922 19.93939023 9.8603997 22.3125 11.125 C23.92761065 11.98330577 25.54284371 12.84138124 27.15820312 13.69921875 C31.10689137 15.79681468 35.05388847 17.89756093 39 20 C39.09368787 43.69697853 39.16409862 67.39392905 39.20724869 91.09105587 C39.22782184 102.09551647 39.2558415 113.09986159 39.30175781 124.10424805 C39.34178687 133.70231015 39.36747088 143.30028857 39.37635398 152.89843184 C39.38154165 157.97457311 39.39362368 163.0504751 39.42292023 168.12653923 C39.45034401 172.91754867 39.45839131 177.70822334 39.45243073 182.49930382 C39.45351904 184.24503151 39.46131069 185.990772 39.4768219 187.73643112 C39.74038415 218.96581095 27.54291843 246.73127332 6.3671875 269.62890625 C-1.4873695 277.49642457 -10.37717067 283.50124038 -20 289 C-20.84304688 289.4846875 -21.68609375 289.969375 -22.5546875 290.46875 C-29.36070142 294.12837716 -36.54192716 296.08959879 -44 298 C-45.15757812 298.3609375 -46.31515625 298.721875 -47.5078125 299.09375 C-53.79996081 300.64978331 -60.31129468 300.32834327 -66.75 300.3125 C-68.04421875 300.32861328 -69.3384375 300.34472656 -70.671875 300.36132812 C-78.91097148 300.3654809 -86.12599856 299.39504593 -94 297 C-95.02915527 296.71781616 -95.02915527 296.71781616 -96.07910156 296.42993164 C-120.00783675 289.82211784 -139.77041682 274.09016491 -154.625 254.5625 C-155.15875244 253.86366699 -155.69250488 253.16483398 -156.24243164 252.44482422 C-156.73219482 251.78369629 -157.22195801 251.12256836 -157.7265625 250.44140625 C-158.16564941 249.85045166 -158.60473633 249.25949707 -159.05712891 248.65063477 C-160 247 -160 247 -160 244 C-159.27111572 243.59797363 -158.54223145 243.19594727 -157.79125977 242.78173828 C-140.03145436 232.99736474 -140.03145436 232.99736474 -122.484375 222.83911133 C-116.20805169 219.10951525 -109.88862258 215.45691186 -103.5625 211.8125 C-101.90142212 210.85537109 -101.90142212 210.85537109 -100.20678711 209.87890625 C-97.93630921 208.57093309 -95.665719 207.26315487 -93.39501953 205.95556641 C-87.9283002 202.80667946 -82.46425113 199.65316736 -77 196.5 C-74.83334689 195.2499765 -72.66668021 193.99997653 -70.5 192.75 C-68.89125 191.821875 -68.89125 191.821875 -67.25 190.875 C-62.375 188.0625 -62.375 188.0625 -57.5 185.25 C-56.4265332 184.63068604 -55.35306641 184.01137207 -54.24707031 183.37329102 C-52.09019097 182.12895002 -49.93329008 180.88464636 -47.77636719 179.64038086 C-42.78965174 176.76363263 -37.80312898 173.88655262 -32.81741333 171.0080719 C-21.22491241 164.31522459 -9.63074519 157.62620335 2 151 C2.12271648 133.4843471 1.99882864 115.98737149 1.5625 98.4765625 C1.54052551 97.59121574 1.51855103 96.70586899 1.49591064 95.79369354 C1.31304875 88.48632862 1.12056275 81.17922262 0.92712402 73.87213135 C0.75906655 67.51122659 0.59501388 61.15023756 0.4375 54.7890625 C0.41568665 53.91070992 0.39387329 53.03235733 0.37139893 52.127388 C-0.05156618 34.7500192 -0.11282995 17.3816714 0 0 Z " fill="#0FA982" transform="translate(582,481)"/>
<path d="M0 0 C7.98718041 7.38654445 14.16423363 15.16129685 19.75 24.5 C16.97262654 27.48885268 14.31071009 29.51050908 10.734375 31.4609375 C9.7431665 32.00741943 8.75195801 32.55390137 7.73071289 33.11694336 C6.66457764 33.69710205 5.59844238 34.27726074 4.5 34.875 C2.22166234 36.13231524 -0.05565738 37.39147654 -2.33203125 38.65234375 C-2.91155045 38.97278152 -3.49106964 39.2932193 -4.08815002 39.62336731 C-9.8381411 42.80974153 -15.51798944 46.110649 -21.1875 49.4375 C-23.17831492 50.60428696 -25.169201 51.7709525 -27.16015625 52.9375 C-28.1567627 53.52144531 -29.15336914 54.10539062 -30.18017578 54.70703125 C-35.4832725 57.80437038 -40.80394935 60.87113858 -46.125 63.9375 C-47.20515381 64.56003662 -48.28530762 65.18257324 -49.39819336 65.82397461 C-51.58796334 67.08576826 -53.77782355 68.34740534 -55.96777344 69.60888672 C-61.39659942 72.73680148 -66.82319281 75.86858448 -72.25 79 C-74.41665583 80.25001879 -76.5833225 81.50001878 -78.75 82.75 C-79.8225 83.36875 -80.895 83.9875 -82 84.625 C-91.75 90.25 -91.75 90.25 -95.00512695 92.12792969 C-97.15473634 93.36810761 -99.30431358 94.60834127 -101.45385742 95.84863281 C-106.52309212 98.7735023 -111.59264936 101.69780833 -116.6633606 104.62011719 C-119.05426597 105.99806938 -121.44498672 107.37634172 -123.83569336 108.75463867 C-125.51983963 109.72540982 -127.20425231 110.69571874 -128.88867188 111.66601562 C-130.42297852 112.55063477 -130.42297852 112.55063477 -131.98828125 113.453125 C-133.33466675 114.22897949 -133.33466675 114.22897949 -134.70825195 115.02050781 C-135.54702881 115.50874023 -136.38580566 115.99697266 -137.25 116.5 C-138.54994148 117.11893883 -138.54994148 117.11893883 -139.87614441 117.75038147 C-142.47761713 119.2726911 -142.47761713 119.2726911 -142.83349609 121.97062683 C-142.80376709 123.45699394 -142.80376709 123.45699394 -142.7734375 124.97338867 C-142.76256104 126.1136702 -142.75168457 127.25395172 -142.74047852 128.42878723 C-142.68331665 130.31061958 -142.68331665 130.31061958 -142.625 132.23046875 C-142.60204848 133.56752742 -142.58118758 134.90462337 -142.56225586 136.241745 C-142.50324928 139.89537393 -142.41115602 143.54747815 -142.31109619 147.20018768 C-142.22923538 150.28163197 -142.16233882 153.36333509 -142.09492302 156.44512367 C-141.89530807 165.50524175 -141.64960682 174.56384772 -141.3949585 183.62255859 C-140.58199532 212.58461771 -139.88127828 241.52414518 -140.25 270.5 C-144.72815405 269.13609307 -148.66822783 267.35040381 -152.78515625 265.12890625 C-153.38629745 264.80591049 -153.98743866 264.48291473 -154.60679626 264.15013123 C-156.51111495 263.12533298 -158.41174792 262.09389527 -160.3125 261.0625 C-161.59157716 260.37394066 -162.87087224 259.68578596 -164.15039062 258.99804688 C-167.52480738 257.1793412 -170.89685585 255.35777585 -174.25 253.5 C-175.1247998 253.12095079 -175.99959959 252.74190159 -176.90090847 252.35136604 C-179.25 250.5 -179.25 250.5 -179.87641239 247.27351189 C-179.90267227 245.9133787 -179.90107692 244.5525464 -179.87818909 243.19235229 C-179.88883067 242.0671882 -179.88883067 242.0671882 -179.89968723 240.91929352 C-179.91733525 238.39733966 -179.89912827 235.87691338 -179.88110352 233.35498047 C-179.88624038 231.5496246 -179.89351989 229.74427373 -179.90278625 227.93893433 C-179.92135675 223.0247166 -179.90831875 218.11103912 -179.88869596 213.19684362 C-179.87231954 208.0451325 -179.88112258 202.89345592 -179.88621521 197.74172974 C-179.89074298 189.07431423 -179.87483808 180.40711398 -179.84692383 171.73974609 C-179.81501024 161.7543739 -179.81483039 151.76939306 -179.8321386 141.7839936 C-179.84808499 132.15659671 -179.8412091 122.52934166 -179.82420158 112.90195084 C-179.81737263 108.8186472 -179.81832096 104.73545868 -179.82574654 100.65215683 C-179.8334891 95.82080733 -179.82102707 90.98989435 -179.79389763 86.15861893 C-179.78708996 84.39840743 -179.78683238 82.63815455 -179.79411316 80.87794495 C-179.88995626 54.65562683 -171.46728117 29.56855066 -154.25 9.5 C-153.55003906 8.67886719 -152.85007812 7.85773438 -152.12890625 7.01171875 C-110.9419357 -40.02851278 -45.74982859 -39.93593206 0 0 Z " fill="#0FA982" transform="translate(538.25,228.5)"/>
<path d="M0 0 C2.70420652 1.23994779 5.28685045 2.58513626 7.88256836 4.03833008 C9.40140625 4.88814453 9.40140625 4.88814453 10.95092773 5.75512695 C12.0021582 6.34745117 13.05338867 6.93977539 14.13647461 7.55004883 C15.12196289 8.09983398 16.10745117 8.64961914 17.12280273 9.21606445 C19.31039951 10.44411722 21.47681845 11.71033193 23.62573242 13.00488281 C26.78442673 14.8420836 30.01038199 16.18753433 33.4050293 17.53466797 C39.6019363 20.21766708 45.37499846 22.90058044 49.69897461 28.23754883 C53.01042236 37.35012731 51.88784289 47.42927017 51.20959473 56.94390869 C50.98225594 60.47441255 50.88361199 64.00844026 50.77319336 67.54418945 C50.53896228 74.45055856 50.16495848 81.34303366 49.69897461 88.23754883 C38.53374205 94.67246087 38.53374205 94.67246087 34.36987305 97.05810547 C28.47969822 100.44135171 22.62972705 103.86902527 16.83959961 107.42114258 C15.76387695 108.07324707 14.6881543 108.72535156 13.57983398 109.3972168 C11.52411063 110.64661697 9.47808284 111.91213963 7.44311523 113.19506836 C6.51176758 113.75693848 5.58041992 114.31880859 4.62084961 114.89770508 C3.40800293 115.6499939 3.40800293 115.6499939 2.1706543 116.41748047 C-1.30189198 117.56962221 -2.99614695 116.69096293 -6.30102539 115.23754883 C-8.18448261 114.26957286 -10.04109922 113.24804439 -11.87133789 112.18286133 C-12.93481445 111.56668945 -13.99829102 110.95051758 -15.09399414 110.31567383 C-16.74334961 109.34887695 -16.74334961 109.34887695 -18.42602539 108.36254883 C-19.47145508 107.75668945 -20.51688477 107.15083008 -21.59399414 106.52661133 C-23.25666304 105.55952859 -24.91897036 104.59069906 -26.55172729 103.57392883 C-30.11867413 101.37715865 -33.64166689 99.66023726 -37.53588867 98.10546875 C-44.20296546 95.20605678 -50.66516127 92.35603771 -53.48724365 85.25109863 C-55.19339685 77.69062639 -55.25435109 70.12646945 -55.01831055 62.41162109 C-54.91529353 58.97911463 -55.00363723 55.58148537 -55.14129639 52.15134239 C-55.82196839 32.38891126 -55.82196839 32.38891126 -50.2355957 25.80230713 C-45.0372476 21.57058046 -39.21704156 18.90213577 -33.04119873 16.3901062 C-29.32122713 14.82543121 -25.96593898 12.83006092 -22.53540039 10.72192383 C-20.37464075 9.47591974 -18.21321315 8.23107307 -16.05102539 6.98754883 C-14.36493164 6.01495117 -14.36493164 6.01495117 -12.64477539 5.02270508 C-2.49249067 -0.82589373 -2.49249067 -0.82589373 0 0 Z " fill="#0FA982" transform="translate(491.301025390625,431.762451171875)"/>
</svg>
