<?xml version="1.0" encoding="UTF-8"?>
<svg version="1.1" xmlns="http://www.w3.org/2000/svg" width="931" height="1024">
<path d="M0 0 C0.82763855 -0.00067474 1.6552771 -0.00134949 2.50799561 -0.00204468 C14.96138113 0.01408704 27.00346434 0.44913453 39.1875 3.25 C39.97672852 3.42692383 40.76595703 3.60384766 41.57910156 3.78613281 C58.79989236 7.74438524 74.62499459 13.93802996 90.1875 22.25 C90.78369141 22.56743164 91.37988281 22.88486328 91.99414062 23.21191406 C104.48975622 29.92813523 116.52741001 37.46531292 128.62969971 44.85731506 C134.56317226 48.48141064 140.50604096 52.08991806 146.45040894 55.69610596 C149.35922037 57.46088335 152.26751435 59.22651291 155.17578125 60.9921875 C155.75272232 61.34243988 156.32966339 61.69269226 156.92408752 62.05355835 C160.45500864 64.19735937 163.98506495 66.34257711 167.51449585 68.48883057 C179.22027068 75.60706329 190.93387537 82.71089518 202.6875 89.75 C211.47574491 95.01317447 220.24561916 100.30575599 229 105.625 C229.58182037 105.97850525 230.16364075 106.3320105 230.76309204 106.69622803 C235.4989847 109.57406195 240.23382542 112.45362496 244.96862793 115.33325195 C249.1035974 117.84797113 253.2389765 120.36201475 257.375 122.875 C257.95706207 123.22866638 258.53912415 123.58233276 259.13882446 123.94671631 C267.30584459 128.90771873 275.4895025 133.84031762 283.6875 138.75 C292.47574491 144.01317447 301.24561916 149.30575599 310 154.625 C310.87273056 155.15525787 310.87273056 155.15525787 311.76309204 155.69622803 C316.4989847 158.57406195 321.23382542 161.45362496 325.96862793 164.33325195 C329.51748494 166.49152152 333.06664667 168.64928833 336.61630249 170.8062439 C337.78519014 171.51657401 338.95399357 172.22704273 340.12271118 172.93765259 C346.42907473 176.77151367 352.74425014 180.58934959 359.08203125 184.37109375 C360.19360596 185.0347998 361.30518066 185.69850586 362.45043945 186.38232422 C364.52150907 187.61724966 366.59411971 188.84959663 368.66870117 190.07861328 C383.35453249 198.83374854 396.71016934 208.5525025 409.1875 220.25 C409.68121094 220.70971191 410.17492187 221.16942383 410.68359375 221.64306641 C425.46138564 235.51336921 436.71736708 251.37631025 446.1875 269.25 C446.56245605 269.95592285 446.93741211 270.6618457 447.32373047 271.38916016 C456.57759359 289.1302694 462.14187431 308.51579389 465.1875 328.25 C465.44188229 329.86590279 465.44188229 329.86590279 465.70140362 331.51445007 C466.47269168 337.79074356 466.33598501 344.10055129 466.33467102 350.41381836 C466.33797467 351.8555489 466.34170129 353.29727853 466.3458125 354.739007 C466.35578431 358.68795287 466.35954151 362.63688355 466.36220181 366.58584023 C466.36611944 370.85069034 466.37569696 375.1155286 466.38441467 379.38037109 C466.40414175 389.67609332 466.41424218 399.97181646 466.42314246 410.26755285 C466.42753299 415.12588915 466.43289795 419.98422437 466.43813133 424.84255981 C466.45514262 441.0113248 466.46963305 457.18008913 466.47688007 473.34886169 C466.47878972 477.54116822 466.48071009 481.73347474 466.48266602 485.92578125 C466.48314976 486.96765819 466.4836335 488.00953512 466.4841319 489.08298409 C466.49241821 505.93099706 466.51773188 522.7789387 466.55024669 539.62692058 C466.58341708 556.95716132 466.60133796 574.28736596 466.60452431 591.61763859 C466.60668059 601.33448269 466.61529865 611.05122291 466.64098549 620.76803589 C466.66282958 629.0500048 466.67067636 637.33184458 466.66101871 645.61383903 C466.65651282 649.82952358 466.65813969 654.04494251 466.67778015 658.2605896 C466.9249889 714.50910115 450.11277794 763.07194411 410.3125 803.4375 C388.75056976 824.89802199 360.75585588 839.142147 334.82763672 854.66259766 C327.76466059 858.89411653 320.72426233 863.16258757 313.6875 867.4375 C313.098479 867.79532562 312.50945801 868.15315125 311.90258789 868.52182007 C307.66377017 871.09713148 303.42557026 873.67345875 299.1875 876.25 C294.35458024 879.18818091 289.52140522 882.1259406 284.6875 885.0625 C283.80300171 885.59984268 283.80300171 885.59984268 282.90063477 886.14804077 C274.89075362 891.01309264 266.86542168 895.85145886 258.82421875 900.66455078 C251.7624899 904.89559874 244.72314144 909.16326852 237.6875 913.4375 C237.098479 913.79532562 236.50945801 914.15315125 235.90258789 914.52182007 C231.66377017 917.09713148 227.42557026 919.67345875 223.1875 922.25 C218.35458024 925.18818091 213.52140522 928.1259406 208.6875 931.0625 C207.80300171 931.59984268 207.80300171 931.59984268 206.90063477 932.14804077 C198.89075362 937.01309264 190.86542168 941.85145886 182.82421875 946.66455078 C175.76248824 950.89559973 168.72328127 955.16349676 161.6875 959.4375 C161.09449097 959.79765198 160.50148193 960.15780396 159.89050293 960.52886963 C153.9259327 964.15152643 147.96289708 967.77667827 142.00402832 971.40870667 C136.24606614 974.91819182 130.48307226 978.41916855 124.71203613 981.90711975 C121.52662102 983.83260003 118.34412326 985.76267314 115.16601562 987.70019531 C67.7630936 1016.57752762 15.90622585 1034.15053364 -40.08398438 1020.93457031 C-73.80465066 1012.47423135 -101.67915961 995.45596706 -130.93652344 977.33935547 C-139.14453238 972.25814787 -147.40345719 967.26823828 -155.6875 962.3125 C-165.45569984 956.46714308 -175.20998133 950.6003457 -184.9375 944.6875 C-185.50861511 944.34039978 -186.07973022 943.99329956 -186.66815186 943.63568115 C-190.12954608 941.53174917 -193.59029917 939.42676438 -197.05090332 937.3215332 C-202.47033055 934.02503731 -207.89109099 930.73073545 -213.3125 927.4375 C-213.9030719 927.07872772 -214.4936438 926.71995544 -215.10211182 926.35031128 C-222.32633012 921.96244714 -229.56001226 917.59100351 -236.8125 913.25 C-244.66389943 908.55051567 -252.49216279 903.81344301 -260.3125 899.0625 C-261.19603149 898.52576157 -261.19603149 898.52576157 -262.09741211 897.97817993 C-266.94734021 895.03158585 -271.79643496 892.08362132 -276.64550781 889.13562012 C-280.86745902 886.56895524 -285.08972201 884.00280442 -289.3125 881.4375 C-289.90216553 881.07927155 -290.49183105 880.72104309 -291.09936523 880.35195923 C-298.32450006 875.96354759 -305.55909626 871.59155178 -312.8125 867.25 C-321.85681525 861.83649147 -330.87151826 856.37456943 -339.87548828 850.89428711 C-346.01826589 847.15621518 -352.16853888 843.43170755 -358.3359375 839.734375 C-382.41273962 825.28221717 -382.41273962 825.28221717 -392.8125 817.25 C-393.69421875 816.58871094 -394.5759375 815.92742188 -395.484375 815.24609375 C-434.26582373 785.01262706 -456.76332404 740.97550156 -464.33015728 692.96557617 C-465.09894154 686.69624668 -464.96098352 680.39226765 -464.95967102 674.08618164 C-464.96297467 672.6444511 -464.96670129 671.20272147 -464.9708125 669.760993 C-464.98078431 665.81204713 -464.98454151 661.86311645 -464.98720181 657.91415977 C-464.99111944 653.64930966 -465.00069696 649.3844714 -465.00941467 645.11962891 C-465.02914175 634.82390668 -465.03924218 624.52818354 -465.04814246 614.23244715 C-465.05253299 609.37411085 -465.05789795 604.51577563 -465.06313133 599.65744019 C-465.08014262 583.4886752 -465.09463305 567.31991087 -465.10188007 551.15113831 C-465.10378972 546.95883178 -465.10571009 542.76652526 -465.10766602 538.57421875 C-465.10814976 537.53234181 -465.1086335 536.49046488 -465.1091319 535.41701591 C-465.11741821 518.56900294 -465.14273188 501.7210613 -465.17524669 484.87307942 C-465.20841708 467.54283868 -465.22633796 450.21263404 -465.22952431 432.88236141 C-465.23168059 423.16551731 -465.24029865 413.44877709 -465.26598549 403.73196411 C-465.28782958 395.4499952 -465.29567636 387.16815542 -465.28601871 378.88616097 C-465.28151282 374.67047642 -465.28313969 370.45505749 -465.30278015 366.2394104 C-465.53797254 312.72014638 -450.92837913 265.84027108 -413.8125 226.25 C-413.35278809 225.75628906 -412.89307617 225.26257813 -412.41943359 224.75390625 C-396.47560201 207.76692129 -377.45006271 196.05897436 -357.55517578 184.28381348 C-353.81506376 182.06505411 -350.08976063 179.82155131 -346.36206055 177.58203125 C-344.32260794 176.35682492 -342.28240067 175.13287395 -340.24145508 173.91015625 C-332.47786294 169.25873329 -324.73450376 164.57455712 -317 159.875 C-316.41817963 159.52149475 -315.83635925 159.1679895 -315.23690796 158.80377197 C-311.09486132 156.2867972 -306.95359321 153.76854301 -302.8125 151.25 C-298.08386534 148.37412419 -293.35489057 145.49880989 -288.625 142.625 C-288.04293793 142.27133362 -287.46087585 141.91766724 -286.86117554 141.55328369 C-277.6734154 135.97223949 -268.46136177 130.43247957 -259.23876953 124.90917969 C-251.4766794 120.25707012 -243.73372666 115.57403917 -236 110.875 C-235.41651794 110.52049774 -234.83303589 110.16599548 -234.23187256 109.80075073 C-228.93076054 106.57958955 -223.63093454 103.35631489 -218.33154297 100.13232422 C-214.86734705 98.02491776 -211.40267579 95.91829488 -207.9375 93.8125 C-207.36349457 93.4636676 -206.78948914 93.11483521 -206.1980896 92.75543213 C-196.46011136 86.83955285 -186.69399102 80.97142328 -176.91955566 75.11602783 C-167.82539704 69.66733956 -158.74747991 64.19283523 -149.6875 58.6875 C-149.11487427 58.33964447 -148.54224854 57.99178894 -147.95227051 57.63339233 C-142.12134271 54.09089725 -136.29314393 50.54396668 -130.46908569 46.9901886 C-122.9290569 42.3898516 -115.37758612 37.80904072 -107.8125 33.25 C-106.72324219 32.59273926 -105.63398438 31.93547852 -104.51171875 31.25830078 C-92.61348368 24.10605155 -80.85921751 17.08956725 -67.8125 12.25 C-66.62889893 11.80817383 -66.62889893 11.80817383 -65.42138672 11.35742188 C-52.7980603 6.72669367 -40.10386562 3.31764366 -26.8125 1.25 C-26.16901611 1.146875 -25.52553223 1.04375 -24.86254883 0.9375 C-16.64110407 -0.17821769 -8.28166104 0.006054 0 0 Z M-113.61308289 364.02786255 C-119.47148037 367.67138425 -125.38819661 371.21480316 -131.3125 374.75 C-140.41442283 380.19872537 -149.49492523 385.6818821 -158.5625 391.1875 C-159.13492432 391.53490234 -159.70734863 391.88230469 -160.29711914 392.24023438 C-162.9926518 393.87648776 -165.67734909 395.52027326 -168.33526611 397.21733093 C-170.6605401 398.65062043 -172.6410297 399.56312823 -175.24420166 400.54695129 C-179.17917246 402.23747951 -182.27772087 403.7210666 -184.8125 407.25 C-187.28507044 414.81842047 -186.39179565 423.32821768 -186.1875 431.171875 C-186.17083804 433.55630445 -186.15953369 435.94077677 -186.15332031 438.32525635 C-186.1273749 443.3264065 -186.05967291 448.32452977 -185.95800781 453.32470703 C-185.82883708 459.67883585 -185.76692151 466.03108162 -185.73245239 472.38636398 C-185.69736491 478.50261629 -185.63268312 484.61843761 -185.5625 490.734375 C-185.55079773 491.87590782 -185.53909546 493.01744064 -185.52703857 494.19356537 C-185.3108621 511.91287001 -184.02158536 529.29960609 -179.5 546.5 C-179.28835205 547.32024658 -179.0767041 548.14049316 -178.85864258 548.9855957 C-170.86108535 578.9946182 -155.12628954 605.78043878 -133.8125 628.25 C-133.35568848 628.73936035 -132.89887695 629.2287207 -132.42822266 629.73291016 C-117.5044791 645.63737102 -99.99601439 656.89265464 -81.35818481 667.95083618 C-75.33706586 671.52381113 -69.35679295 675.1623231 -63.37866211 678.80661011 C-56.03460764 683.2808549 -48.67873487 687.7355043 -41.3046875 692.16015625 C-40.25643799 692.78946045 -39.20818848 693.41876465 -38.12817383 694.06713867 C-36.06398014 695.30133737 -33.9961665 696.52950437 -31.92456055 697.7512207 C-26.67873448 700.85750665 -21.55952295 704.0644546 -16.52734375 707.5078125 C-15.50423096 708.18755127 -14.48111816 708.86729004 -13.42700195 709.56762695 C-11.4872378 710.86201756 -9.57079625 712.19233393 -7.68432617 713.56323242 C-5.01562374 715.31617707 -2.92472683 716.52531864 0.1875 717.25 C4.42746963 716.11504474 7.62289169 713.74887293 11.1875 711.25 C13.34575432 709.94390696 15.51147428 708.65008959 17.68359375 707.3671875 C19.40232556 706.31920432 21.12102379 705.27116096 22.83764648 704.21972656 C25.92902986 702.32630175 29.02555359 700.44130565 32.12109375 698.5546875 C32.73431488 698.18059753 33.34753601 697.80650757 33.9793396 697.42108154 C39.03380012 694.33887555 44.10619758 691.28767712 49.1875 688.25 C61.89048377 680.64305773 74.55698012 672.97661771 87.1875 665.25 C88.14237305 664.66621582 89.09724609 664.08243164 90.08105469 663.48095703 C104.15472053 654.84308322 117.16033424 645.64219117 129.1875 634.25 C130.12078125 633.38117188 131.0540625 632.51234375 132.015625 631.6171875 C144.08146099 620.14478592 153.97565266 606.70425805 162.1875 592.25 C162.84105469 591.12851562 163.49460937 590.00703125 164.16796875 588.8515625 C172.2764142 574.59262674 177.68717684 559.34302684 181.5625 543.4375 C181.92045654 541.97304443 181.92045654 541.97304443 182.28564453 540.47900391 C187.3952313 518.26356987 187.36228447 495.25010419 187.80250359 472.5723505 C187.92645369 466.30771112 188.10453678 460.05479251 188.40966797 453.79614258 C191.16286807 427.47587098 191.16286807 427.47587098 183.5710144 403.39697266 C177.49530701 397.22532328 169.58203771 394.13566731 161.51660156 391.41903687 C157.31087027 389.94216545 153.87172072 387.88665854 150.20703125 385.3984375 C136.1380285 376.84379833 122.0496956 368.32250583 107.91162109 359.88232422 C105.44110332 358.40196198 102.97901673 356.90874638 100.51953125 355.41015625 C29.77832956 312.56405528 -45.46397779 321.61599107 -113.61308289 364.02786255 Z " fill="#4597D7" transform="translate(464.8125,-0.25)"/>
<path d="M0 0 C1.89212523 0.93259584 3.78268812 1.86836181 5.67260742 2.80541992 C6.72558517 3.32617599 7.77856293 3.84693207 8.8634491 4.38346863 C13.50840926 6.77741155 17.90315636 9.51448976 22.3125 12.3125 C24.14140991 13.45915863 25.97084001 14.60498797 27.80078125 15.75 C28.68459473 16.30429687 29.5684082 16.85859375 30.47900391 17.4296875 C35.01067838 20.25243883 39.59822686 22.97933827 44.1875 25.70703125 C48.06799153 28.02599543 51.91201333 30.40378312 55.76004028 32.77609253 C62.11462745 36.69135449 68.49367699 40.56601884 74.875 44.4375 C75.49060791 44.81116699 76.10621582 45.18483398 76.74047852 45.56982422 C83.31776166 49.56198909 89.89763293 53.54940331 96.5 57.5 C107.73497565 64.22288532 118.91015365 71.04540768 130.09893799 77.8447876 C135.16998486 80.92629478 140.24153388 84.00697496 145.31338501 87.0871582 C147.07128884 88.15487682 148.82898747 89.22293263 150.58666992 90.29101562 C157.92720649 94.74938166 165.27978059 99.18669025 172.65722656 103.58374023 C190.01046504 113.93935763 206.94731041 124.2385015 221.42626953 138.45703125 C223.05005037 140.04907204 224.69391029 141.61839903 226.33984375 143.1875 C254.86839109 170.6790981 273.58273394 209.81930823 279 249 C279.16628906 250.17175781 279.16628906 250.17175781 279.3359375 251.3671875 C284.56239311 296.71022133 268.31586985 342.84586169 240.4140625 378.3359375 C215.49401673 409.09845949 182.06727444 427.40334679 148.64013672 447.41259766 C141.57716059 451.64411653 134.53676233 455.91258757 127.5 460.1875 C126.910979 460.54532562 126.32195801 460.90315125 125.71508789 461.27182007 C121.47627017 463.84713148 117.23807026 466.42345875 113 469 C108.16708024 471.93818091 103.33390522 474.8759406 98.5 477.8125 C97.61550171 478.34984268 97.61550171 478.34984268 96.71313477 478.89804077 C88.70325362 483.76309264 80.67792168 488.60145886 72.63671875 493.41455078 C65.5749899 497.64559874 58.53564144 501.91326852 51.5 506.1875 C50.910979 506.54532562 50.32195801 506.90315125 49.71508789 507.27182007 C45.47627017 509.84713148 41.23807026 512.42345875 37 515 C32.16708024 517.93818091 27.33390522 520.8759406 22.5 523.8125 C21.61550171 524.34984268 21.61550171 524.34984268 20.71313477 524.89804077 C12.70325362 529.76309264 4.67792168 534.60145886 -3.36328125 539.41455078 C-10.42501176 543.64559973 -17.46421873 547.91349676 -24.5 552.1875 C-25.38951355 552.72772797 -25.38951355 552.72772797 -26.29699707 553.27886963 C-32.2615673 556.90152643 -38.22460292 560.52667827 -44.18347168 564.15870667 C-49.94143386 567.66819182 -55.70442774 571.16916855 -61.47546387 574.65711975 C-64.66087898 576.58260003 -67.84337674 578.51267314 -71.02148438 580.45019531 C-118.4244064 609.32752762 -170.28127415 626.90053364 -226.27148438 613.68457031 C-259.99215066 605.22423135 -287.86665961 588.20596706 -317.12402344 570.08935547 C-325.33203238 565.00814787 -333.59095719 560.01823828 -341.875 555.0625 C-351.64319984 549.21714308 -361.39748133 543.3503457 -371.125 537.4375 C-371.69611511 537.09039978 -372.26723022 536.74329956 -372.85565186 536.38568115 C-376.31704608 534.28174917 -379.77779917 532.17676438 -383.23840332 530.0715332 C-388.65783055 526.77503731 -394.07859099 523.48073545 -399.5 520.1875 C-400.0905719 519.82872772 -400.6811438 519.46995544 -401.28961182 519.10031128 C-408.51383012 514.71244714 -415.74751226 510.34100351 -423 506 C-430.85139943 501.30051567 -438.67966279 496.56344301 -446.5 491.8125 C-447.38353149 491.27576157 -447.38353149 491.27576157 -448.28491211 490.72817993 C-453.13484021 487.78158585 -457.98393496 484.83362132 -462.83300781 481.88562012 C-467.05495904 479.31895523 -471.27729487 476.75292437 -475.5 474.1875 C-476.08733917 473.83060089 -476.67467834 473.47370178 -477.27981567 473.10598755 C-484.65030778 468.62803805 -492.03496026 464.17477903 -499.4375 459.75 C-506.5034797 455.51873454 -513.54501274 451.24874827 -520.5625 446.9375 C-521.46218506 446.38868164 -522.36187012 445.83986328 -523.28881836 445.27441406 C-524.12292236 444.75975586 -524.95702637 444.24509766 -525.81640625 443.71484375 C-526.55318604 443.26230225 -527.28996582 442.80976074 -528.04907227 442.34350586 C-529.95533536 441.03075829 -531.50023969 439.76228489 -533 438 C-533 437.34 -533 436.68 -533 436 C-531.54148119 436.39514937 -530.08320674 436.79120057 -528.625 437.1875 C-527.61695313 437.45949219 -526.60890625 437.73148438 -525.5703125 438.01171875 C-523.01353343 438.71944862 -520.47147225 439.44948671 -517.9296875 440.20703125 C-503.66220458 444.40777238 -489.31957767 447.57909214 -474.37109375 447.0078125 C-472 447 -472 447 -470 448 C-468.1478437 448.09584979 -466.29212847 448.12983606 -464.4375 448.125 C-462.95056641 448.12886719 -462.95056641 448.12886719 -461.43359375 448.1328125 C-459.05187652 448.27438431 -459.05187652 448.27438431 -458 447 C-454.69687103 446.92720377 -451.4047915 447.00390614 -448.1015625 447.0625 C-444.96356035 447.15288146 -444.96356035 447.15288146 -442 446 C-439.3125 446.4375 -439.3125 446.4375 -437 447 C-437 446.34 -437 445.68 -437 445 C-435.02 445.33 -433.04 445.66 -431 446 C-431 445.34 -431 444.68 -431 444 C-429.35 444.33 -427.7 444.66 -426 445 C-426 444.34 -426 443.68 -426 443 C-424.35 443.33 -422.7 443.66 -421 444 C-420.67 443.34 -420.34 442.68 -420 442 C-418.02 442 -416.04 442 -414 442 C-414 441.34 -414 440.68 -414 440 C-411.69 440 -409.38 440 -407 440 C-406.67 439.34 -406.34 438.68 -406 438 C-405.34 438.33 -404.68 438.66 -404 439 C-403.67 438.34 -403.34 437.68 -403 437 C-401.68 437 -400.36 437 -399 437 C-398.67 436.34 -398.34 435.68 -398 435 C-397.34 435.33 -396.68 435.66 -396 436 C-395.67 435.34 -395.34 434.68 -395 434 C-392.911361 433.32624548 -391.19636905 433 -389 433 C-388.67 432.34 -388.34 431.68 -388 431 C-385.69370602 429.63330727 -383.51019205 428.85005879 -380.9375 428.0625 C-378.03566424 427.24788117 -378.03566424 427.24788117 -376.5 425.5 C-374.34784528 423.34784528 -371.86300792 422.91372593 -369 422 C-368.34 421.34 -367.68 420.68 -367 420 C-365.66666667 419.33333333 -364.33333333 418.66666667 -363 418 C-362.319375 417.484375 -361.63875 416.96875 -360.9375 416.4375 C-359 415 -359 415 -356 414 C-355.34 413.34 -354.68 412.68 -354 412 C-353.01 411.67 -352.02 411.34 -351 411 C-350.34 410.34 -349.68 409.68 -349 409 C-348.01 408.67 -347.02 408.34 -346 408 C-345.34 407.34 -344.68 406.68 -344 406 C-343.01 405.67 -342.02 405.34 -341 405 C-340.34 404.34 -339.68 403.68 -339 403 C-338.01 402.67 -337.02 402.34 -336 402 C-335.39285156 401.38511719 -334.78570312 400.77023437 -334.16015625 400.13671875 C-331.7588192 397.76143599 -329.41682046 396.38931042 -326.4375 394.8125 C-325.48746094 394.30332031 -324.53742188 393.79414062 -323.55859375 393.26953125 C-321 392 -321 392 -318 391 C-317.34 390.34 -316.68 389.68 -316 389 C-315.01 388.67 -314.02 388.34 -313 388 C-312.34 387.34 -311.68 386.68 -311 386 C-310.01 385.67 -309.02 385.34 -308 385 C-307.34 384.34 -306.68 383.68 -306 383 C-305.01 382.67 -304.02 382.34 -303 382 C-302.34 381.01 -301.68 380.02 -301 379 C-300.01 379 -299.02 379 -298 379 C-297.34 378.01 -296.68 377.02 -296 376 C-295.01 376 -294.02 376 -293 376 C-292.401875 375.401875 -291.80375 374.80375 -291.1875 374.1875 C-287.95049274 370.95049274 -284.30120772 369.43373591 -280 368 C-279.34 367.34 -278.68 366.68 -278 366 C-277.01 365.67 -276.02 365.34 -275 365 C-274.34 364.34 -273.68 363.68 -273 363 C-272.01 362.67 -271.02 362.34 -270 362 C-269.34 361.34 -268.68 360.68 -268 360 C-267.01 359.67 -266.02 359.34 -265 359 C-264.34 358.34 -263.68 357.68 -263 357 C-262.01 356.67 -261.02 356.34 -260 356 C-259.34 355.34 -258.68 354.68 -258 354 C-257.01 353.67 -256.02 353.34 -255 353 C-254.34 352.34 -253.68 351.68 -253 351 C-251.33333333 350 -249.66666667 349 -248 348 C-246.20082588 346.71487563 -244.42011639 345.40868418 -242.6484375 344.0859375 C-241 343 -241 343 -238 342 C-237.236875 341.34 -236.47375 340.68 -235.6875 340 C-232.69243337 337.7711132 -230.6714771 337.34153275 -227 337 C-226.67 336.01 -226.34 335.02 -226 334 C-224.68 334 -223.36 334 -222 334 C-221.67 333.01 -221.34 332.02 -221 331 C-219.68 331 -218.36 331 -217 331 C-216.67 330.01 -216.34 329.02 -216 328 C-215.34 328 -214.68 328 -214 328 C-213.505 327.505 -213.01 327.01 -212.5 326.5 C-212.005 326.005 -211.51 325.51 -211 325 C-210.34 325 -209.68 325 -209 325 C-208.505 324.505 -208.01 324.01 -207.5 323.5 C-207.005 323.005 -206.51 322.51 -206 322 C-205.34 322 -204.68 322 -204 322 C-203.14148438 321.12214844 -203.14148438 321.12214844 -202.265625 320.2265625 C-198.82609287 316.84633265 -194.68931024 314.88959819 -190.484375 312.5859375 C-189.66453125 312.06257813 -188.8446875 311.53921875 -188 311 C-188 310.34 -188 309.68 -188 309 C-187.28062256 308.8961499 -186.56124512 308.7922998 -185.82006836 308.68530273 C-182.68441473 307.92330986 -180.60394179 306.75526414 -177.87890625 305.03515625 C-176.87682129 304.40939697 -175.87473633 303.7836377 -174.84228516 303.13891602 C-173.75995605 302.45369873 -172.67762695 301.76848145 -171.5625 301.0625 C-169.20936744 299.58999611 -166.85262197 298.12331169 -164.49609375 296.65625 C-163.88447388 296.2745314 -163.272854 295.89281281 -162.6427002 295.49952698 C-155.85397842 291.2694023 -148.99154896 287.16458983 -142.125 283.0625 C-139.5998283 281.55150249 -137.07523452 280.0395412 -134.55078125 278.52734375 C-133.92613983 278.15322861 -133.30149841 277.77911346 -132.65792847 277.3936615 C-121.40513271 270.65083335 -110.18747688 263.85065955 -99 257 C-98.05962891 256.42491699 -97.11925781 255.84983398 -96.15039062 255.25732422 C-82.05787456 246.60823606 -69.0515767 237.39806217 -57 226 C-56.14019531 225.20464844 -55.28039062 224.40929687 -54.39453125 223.58984375 C-42.64536208 212.34929662 -33.01805169 199.11314452 -25 185 C-24.34644531 183.87851562 -23.69289063 182.75703125 -23.01953125 181.6015625 C-14.9110858 167.34262674 -9.50032316 152.09302684 -5.625 136.1875 C-5.26704346 134.72304443 -5.26704346 134.72304443 -4.90185547 133.22900391 C-1.0426231 116.44985406 -0.67128896 99.94833433 -0.5859375 82.8125 C-0.5671902 80.41397462 -0.54761425 78.01545558 -0.5272522 75.61694336 C-0.47630095 69.35689059 -0.43647901 63.09681653 -0.39910889 56.83666992 C-0.35883503 50.42751966 -0.30785032 44.01845515 -0.2578125 37.609375 C-0.16149237 25.07297722 -0.07694944 12.53653061 0 0 Z " fill="#8661B4" transform="translate(651,407)"/>
<path d="M0 0 C0.66 0.33 1.32 0.66 2 1 C1.52433594 1.33563965 1.04867188 1.6712793 0.55859375 2.01708984 C-6.93317402 7.55830758 -13.4292733 14.05705213 -20.00195312 20.63134766 C-21.98539322 22.61042534 -23.98428541 24.57292479 -25.984375 26.53515625 C-33.68781461 34.17056387 -40.22311421 41.80404298 -46 51 C-46.46164551 51.70785645 -46.92329102 52.41571289 -47.39892578 53.14501953 C-62.03335478 75.80971656 -71.15696963 101.3295284 -75 128 C-75.25354956 129.7490073 -75.25354956 129.7490073 -75.51222134 131.53334808 C-76.10559639 136.33449846 -76.15293672 141.08882644 -76.15821838 145.92150879 C-76.16562535 147.37733942 -76.16562535 147.37733942 -76.17318195 148.86258078 C-76.18848139 152.09914075 -76.19689701 155.33568101 -76.20532227 158.57226562 C-76.21490673 160.89854097 -76.22491715 163.2248146 -76.23532104 165.55108643 C-76.26231454 171.8561857 -76.28335415 178.16129241 -76.30332303 184.46641731 C-76.32299774 190.39118693 -76.34713372 196.31593697 -76.37124526 202.24068993 C-76.41884107 213.97164519 -76.46212681 225.7026122 -76.50268555 237.43359375 C-76.54208134 248.82553013 -76.58351727 260.21745609 -76.62768555 271.609375 C-76.63177196 272.66361875 -76.63177196 272.66361875 -76.63594092 273.73916036 C-76.64962107 277.26523623 -76.66334121 280.79131194 -76.67708123 284.31738758 C-76.79092007 313.54490302 -76.89768501 342.77244199 -77 372 C-76.01 372.33 -75.02 372.66 -74 373 C-74.99 373.33 -75.98 373.66 -77 374 C-76.93904484 387.8665485 -76.86106862 401.73291574 -76.76428509 415.59926224 C-76.71981111 422.03995734 -76.68050607 428.48059252 -76.65356445 434.92138672 C-76.62730019 441.15258989 -76.58673943 447.38355951 -76.53681374 453.61461639 C-76.52029979 455.97606216 -76.50869031 458.33754818 -76.50238609 460.69904327 C-76.44996606 478.55215566 -75.24336431 495.91920681 -70.6875 513.25 C-70.47585205 514.07024658 -70.2642041 514.89049316 -70.04614258 515.7355957 C-62.04509896 545.75770009 -46.30407704 572.5084826 -25 595 C-24.13117188 595.93328125 -23.26234375 596.8665625 -22.3671875 597.828125 C-8.18687818 612.75866301 8.8724288 623.2691133 26.45433044 633.70085144 C32.4756267 637.27391147 38.45607885 640.91251231 44.43438721 644.55688477 C52.86544047 649.69365433 61.31594289 654.79736783 69.78833008 659.86572266 C74.86368505 662.90251541 79.93222958 665.95057313 85 669 C86.53744873 669.92232422 86.53744873 669.92232422 88.10595703 670.86328125 C91.07637639 672.64957553 94.03915069 674.44789874 97 676.25 C97.89710693 676.7872168 98.79421387 677.32443359 99.71850586 677.87792969 C100.53327393 678.37711914 101.34804199 678.87630859 102.1875 679.390625 C103.26064453 680.0407959 103.26064453 680.0407959 104.35546875 680.70410156 C106 682 106 682 107 685 C104.71180854 686.50554634 102.41978831 688.00457043 100.125 689.5 C99.47402344 689.92925781 98.82304687 690.35851562 98.15234375 690.80078125 C93.2265625 694 93.2265625 694 91 694 C90.67 694.99 90.34 695.98 90 697 C88.68 697 87.36 697 86 697 C85.67 697.99 85.34 698.98 85 700 C83.68 700 82.36 700 81 700 C80.67 700.99 80.34 701.98 80 703 C79.34 703 78.68 703 78 703 C77.505 703.495 77.01 703.99 76.5 704.5 C76.005 704.995 75.51 705.49 75 706 C74.34 706 73.68 706 73 706 C72.505 706.495 72.01 706.99 71.5 707.5 C71.005 707.995 70.51 708.49 70 709 C69.34 709 68.68 709 68 709 C67.319375 709.7115625 67.319375 709.7115625 66.625 710.4375 C64.74479784 712.24538669 63.49588446 712.43641319 61 713 C60.34 713.66 59.68 714.32 59 715 C56.32454913 716.71503261 54.0242787 717.9919071 51 719 C50.13375 719.8971875 50.13375 719.8971875 49.25 720.8125 C47.01501806 722.98539911 44.76800227 724.38756166 42.04296875 725.875 C39.7221385 727.15300978 37.45653093 728.50716974 35.1875 729.875 C34.33671875 730.38675781 33.4859375 730.89851562 32.609375 731.42578125 C30.88967245 732.46326647 29.17089867 733.50229298 27.453125 734.54296875 C12.77784417 743.40738528 12.77784417 743.40738528 8 745 C7.34 745.66 6.68 746.32 6 747 C5.01 747.33 4.02 747.66 3 748 C2.484375 748.515625 1.96875 749.03125 1.4375 749.5625 C0.963125 750.036875 0.48875 750.51125 0 751 C-0.66 751 -1.32 751 -2 751 C-2.495 751.495 -2.99 751.99 -3.5 752.5 C-3.995 752.995 -4.49 753.49 -5 754 C-5.66 754 -6.32 754 -7 754 C-7.87205078 754.87978516 -7.87205078 754.87978516 -8.76171875 755.77734375 C-13.73702517 760.71791854 -20.66791532 764.14810295 -27.125 766.8125 C-30.06911426 767.81337671 -30.06911426 767.81337671 -32 770 C-32.99 770.33 -33.98 770.66 -35 771 C-35.66 771.66 -36.32 772.32 -37 773 C-37.99 773.33 -38.98 773.66 -40 774 C-40.60585938 774.61101563 -41.21171875 775.22203125 -41.8359375 775.8515625 C-44.25395278 778.25211919 -46.65801679 779.70753978 -49.625 781.375 C-51.22408203 782.28572266 -51.22408203 782.28572266 -52.85546875 783.21484375 C-53.89316406 783.80394531 -54.93085938 784.39304687 -56 785 C-61.56592189 788.28159254 -67.06991168 791.65989888 -72.5625 795.0625 C-86.39269187 803.5721357 -86.39269187 803.5721357 -94 806 C-95.32101332 806.64963412 -96.63302075 807.31777234 -97.9375 808 C-101.54312144 809.85061252 -105.07042756 810.96590199 -109 812 C-111.36716969 812.82030633 -113.72723833 813.65653578 -116.08203125 814.51171875 C-118 815 -118 815 -120 814 C-120 814.66 -120 815.32 -120 816 C-121.62318979 816.36237263 -123.2486358 816.71465157 -124.875 817.0625 C-125.77992188 817.25972656 -126.68484375 817.45695313 -127.6171875 817.66015625 C-130 818 -130 818 -132 817 C-132 817.66 -132 818.32 -132 819 C-133.65 818.67 -135.3 818.34 -137 818 C-137 818.66 -137 819.32 -137 820 C-138.98 819.67 -140.96 819.34 -143 819 C-143 819.66 -143 820.32 -143 821 C-144.134375 820.979375 -145.26875 820.95875 -146.4375 820.9375 C-149.81575674 820.58422523 -149.81575674 820.58422523 -151 822 C-154.36822026 822.07243484 -157.72543392 821.99607941 -161.09375 821.9375 C-163.89306374 821.66248366 -163.89306374 821.66248366 -165 823 C-170.78848334 823.33527842 -176.29761736 822.99171872 -182 822 C-183.37764998 821.99341832 -184.75548201 822.00867344 -186.1328125 822.0390625 C-190.76326014 822.05958836 -195.18243034 821.60636163 -199.75 820.875 C-200.55348877 820.74738281 -201.35697754 820.61976563 -202.18481445 820.48828125 C-214.77640168 818.33699131 -227.10077579 814.61146405 -239 810 C-239 810.66 -239 811.32 -239 812 C-238.01 812.33 -237.02 812.66 -236 813 C-236.66 813.33 -237.32 813.66 -238 814 C-240.51171875 812.7434082 -240.51171875 812.7434082 -243.6875 810.80078125 C-244.25762314 810.4545723 -244.82774628 810.10836334 -245.41514587 809.75166321 C-247.28225708 808.61398686 -249.14140933 807.46403588 -251 806.3125 C-252.28188679 805.52442125 -253.56386962 804.73649869 -254.84594727 803.94873047 C-301.26083832 775.34226739 -337.85565027 738.03452938 -351.85693359 683.67285156 C-355.23285606 669.29400085 -357.15024473 655.60425082 -357.14717102 640.83618164 C-357.15047467 639.3944511 -357.15420129 637.95272147 -357.1583125 636.510993 C-357.16828431 632.56204713 -357.17204151 628.61311645 -357.17470181 624.66415977 C-357.17861944 620.39930966 -357.18819696 616.1344714 -357.19691467 611.86962891 C-357.21664175 601.57390668 -357.22674218 591.27818354 -357.23564246 580.98244715 C-357.24003299 576.12411085 -357.24539795 571.26577563 -357.25063133 566.40744019 C-357.26764262 550.2386752 -357.28213305 534.06991087 -357.28938007 517.90113831 C-357.29128972 513.70883178 -357.29321009 509.51652526 -357.29516602 505.32421875 C-357.29564976 504.28234181 -357.2961335 503.24046488 -357.2966319 502.16701591 C-357.30491821 485.31900294 -357.33023188 468.4710613 -357.36274669 451.62307942 C-357.39591708 434.29283868 -357.41383796 416.96263404 -357.41702431 399.63236141 C-357.41918059 389.91551731 -357.42779865 380.19877709 -357.45348549 370.48196411 C-357.47532958 362.1999952 -357.48317636 353.91815542 -357.47351871 345.63616097 C-357.46901282 341.42047642 -357.47063969 337.20505749 -357.49028015 332.9894104 C-357.72547254 279.47014638 -343.11587913 232.59027108 -306 193 C-305.54028809 192.50628906 -305.08057617 192.01257813 -304.60693359 191.50390625 C-288.66310201 174.51692129 -269.63756271 162.80897436 -249.74267578 151.03381348 C-246.00256376 148.81505411 -242.27726063 146.57155131 -238.54956055 144.33203125 C-236.51010794 143.10682492 -234.46990067 141.88287395 -232.42895508 140.66015625 C-224.66536294 136.00873329 -216.92200376 131.32455712 -209.1875 126.625 C-208.60567963 126.27149475 -208.02385925 125.9179895 -207.42440796 125.55377197 C-203.28236132 123.0367972 -199.14109321 120.51854301 -195 118 C-190.27136534 115.12412419 -185.54239057 112.24880989 -180.8125 109.375 C-180.23043793 109.02133362 -179.64837585 108.66766724 -179.04867554 108.30328369 C-169.8609154 102.72223949 -160.64886177 97.18247957 -151.42626953 91.65917969 C-143.6641794 87.00707012 -135.92122666 82.32403917 -128.1875 77.625 C-127.60401794 77.27049774 -127.02053589 76.91599548 -126.41937256 76.55075073 C-121.11826054 73.32958955 -115.81843454 70.10631489 -110.51904297 66.88232422 C-107.05484705 64.77491776 -103.59017579 62.66829488 -100.125 60.5625 C-99.55099457 60.2136676 -98.97698914 59.86483521 -98.3855896 59.50543213 C-88.64761136 53.58955285 -78.88149102 47.72142328 -69.10705566 41.86602783 C-60.59273645 36.76474544 -52.09084395 31.64379525 -43.60809326 26.49017334 C-41.89106018 25.44725488 -40.17331651 24.4055066 -38.45556641 23.36376953 C-32.98911223 20.0466171 -27.53162366 16.71596169 -22.0920105 13.35493469 C-19.48461458 11.74497852 -16.87362516 10.14090505 -14.26226807 8.53738403 C-13.01088483 7.76664673 -11.7613053 6.99297269 -10.51361084 6.21627808 C-8.79215535 5.14483818 -7.06420375 4.0838564 -5.3359375 3.0234375 C-3.85939697 2.10957275 -3.85939697 2.10957275 -2.35302734 1.17724609 C-1.18827881 0.59450928 -1.18827881 0.59450928 0 0 Z " fill="#5D78D5" transform="translate(357,33)"/>
<path d="M0 0 C6.93 2.97 6.93 2.97 14 6 C14 6.99 14 7.98 14 9 C14.99 9.33 15.98 9.66 17 10 C16.01 10.495 16.01 10.495 15 11 C12.37289239 9.63921729 9.89093298 8.23094597 7.375 6.6875 C6.66859375 6.27048828 5.9621875 5.85347656 5.234375 5.42382812 C3.45070255 4.34432752 1.72011849 3.17813469 0 2 C0 1.34 0 0.68 0 0 Z " fill="#958AEB" transform="translate(104,836)"/>
<path d="M0 0 C2.475 0.495 2.475 0.495 5 1 C5 1.99 5 2.98 5 4 C5.99 4.33 6.98 4.66 8 5 C7.01 5.495 7.01 5.495 6 6 C3.4375 4.75 3.4375 4.75 1 3 C0.67 2.01 0.34 1.02 0 0 Z " fill="#AB91F4" transform="translate(113,841)"/>
</svg>
