<?xml version="1.0" encoding="UTF-8"?>
<svg version="1.1" xmlns="http://www.w3.org/2000/svg" width="160" height="160">
<path d="M0 0 C2.01281195 2.93535076 2.01937749 4.70025117 1.5 8.1875 C-0.11294555 10.78613449 -1.38113818 11.15052077 -4.3125 12.0625 C-8.25764106 12.21721141 -10.05041694 11.05027485 -13.5 9.1875 C-27.77691993 4.95786704 -42.52317949 6.13460971 -55.82421875 12.87109375 C-61.64123471 16.13280542 -61.64123471 16.13280542 -66.71484375 20.40625 C-68.5 22.1875 -68.5 22.1875 -70.5 22.1875 C-70.5 22.8475 -70.5 23.5075 -70.5 24.1875 C-71.16 24.1875 -71.82 24.1875 -72.5 24.1875 C-72.726875 24.8475 -72.95375 25.5075 -73.1875 26.1875 C-74.26314741 28.64612265 -75.31928086 30.44151919 -76.8125 32.625 C-84.7825982 45.38664534 -86.56316224 58.96184705 -83.87109375 73.609375 C-80.70999929 84.32591047 -74.23372715 95.10609961 -65.5 102.1875 C-64.51 102.6825 -64.51 102.6825 -63.5 103.1875 C-63.5 103.8475 -63.5 104.5075 -63.5 105.1875 C-62.84 105.435 -62.18 105.6825 -61.5 105.9375 C-59.10783306 106.93423623 -56.86216994 108.00456038 -54.5625 109.1875 C-43.121003 114.95110055 -28.98378371 116.06837316 -16.5 113.1875 C-13.92913417 112.24774711 -11.40269076 111.23538543 -8.87890625 110.17578125 C-6.12925004 109.03347744 -3.33855655 108.08388628 -0.5 107.1875 C-0.5 106.5275 -0.5 105.8675 -0.5 105.1875 C1.15 104.5275 2.8 103.8675 4.5 103.1875 C4.5 102.5275 4.5 101.8675 4.5 101.1875 C6.17721041 99.61791807 7.96794114 98.2394475 9.7734375 96.8203125 C11.62057039 95.07347642 12.50522667 93.50863778 13.5 91.1875 C14.16 91.1875 14.82 91.1875 15.5 91.1875 C15.9021875 89.888125 15.9021875 89.888125 16.3125 88.5625 C17.5 85.1875 17.5 85.1875 19 82.25 C21.93891468 76.24971586 22.93842128 69.99284627 23.9375 63.4453125 C24.123125 62.70023437 24.30875 61.95515625 24.5 61.1875 C27.51868434 59.67815783 30.17297229 60.01239328 33.5 60.1875 C34.49 60.8475 35.48 61.5075 36.5 62.1875 C38.5613488 74.59601141 34.17726151 86.92290612 27.5 97.1875 C16.32146883 112.76338298 1.90294163 124.90015238 -17.5 128.1875 C-21.89844938 128.51837124 -26.27778662 128.56827506 -30.6875 128.5625 C-31.89116211 128.56161377 -33.09482422 128.56072754 -34.33496094 128.55981445 C-42.76625586 128.44713025 -49.75119283 127.69141767 -57.5 124.1875 C-58.26441406 123.87941406 -59.02882812 123.57132813 -59.81640625 123.25390625 C-61.39580509 122.60792904 -62.95277474 121.90713966 -64.5 121.1875 C-64.5 120.5275 -64.5 119.8675 -64.5 119.1875 C-65.49 119.1875 -66.48 119.1875 -67.5 119.1875 C-67.5 118.5275 -67.5 117.8675 -67.5 117.1875 C-68.263125 116.89875 -69.02625 116.61 -69.8125 116.3125 C-72.5 115.1875 -72.5 115.1875 -75.5 113.1875 C-75.5 112.5275 -75.5 111.8675 -75.5 111.1875 C-76.985 110.6925 -76.985 110.6925 -78.5 110.1875 C-78.5 109.5275 -78.5 108.8675 -78.5 108.1875 C-79.16 108.1875 -79.82 108.1875 -80.5 108.1875 C-80.5 107.5275 -80.5 106.8675 -80.5 106.1875 C-81.16 106.1875 -81.82 106.1875 -82.5 106.1875 C-82.5 105.5275 -82.5 104.8675 -82.5 104.1875 C-83.16 104.1875 -83.82 104.1875 -84.5 104.1875 C-97.3474971 87.74788154 -99.97725182 69.39225957 -98.5 49.1875 C-95.85348169 30.52088529 -84.18182578 14.9811253 -69.61328125 3.73046875 C-50.79525132 -9.12783803 -19.46944949 -14.11535088 0 0 Z " fill="#000031" transform="translate(106.5,18.8125)"/>
<path d="M0 0 C2.0234375 0.71484375 2.0234375 0.71484375 3.28125 2.61328125 C4.17935725 5.15634284 4.29836144 7.03433537 4.0234375 9.71484375 C3.3634375 10.70484375 2.7034375 11.69484375 2.0234375 12.71484375 C1.3634375 12.71484375 0.7034375 12.71484375 0.0234375 12.71484375 C0.0234375 13.37484375 0.0234375 14.03484375 0.0234375 14.71484375 C-0.6365625 14.71484375 -1.2965625 14.71484375 -1.9765625 14.71484375 C-2.2446875 15.35421875 -2.5128125 15.99359375 -2.7890625 16.65234375 C-3.9765625 18.71484375 -3.9765625 18.71484375 -6.9765625 19.71484375 C-6.9765625 20.37484375 -6.9765625 21.03484375 -6.9765625 21.71484375 C-7.6365625 21.71484375 -8.2965625 21.71484375 -8.9765625 21.71484375 C-8.9765625 22.37484375 -8.9765625 23.03484375 -8.9765625 23.71484375 C-9.6365625 23.71484375 -10.2965625 23.71484375 -10.9765625 23.71484375 C-11.2446875 24.35421875 -11.5128125 24.99359375 -11.7890625 25.65234375 C-12.9765625 27.71484375 -12.9765625 27.71484375 -15.9765625 28.71484375 C-15.9765625 29.37484375 -15.9765625 30.03484375 -15.9765625 30.71484375 C-16.6365625 30.71484375 -17.2965625 30.71484375 -17.9765625 30.71484375 C-17.9765625 31.37484375 -17.9765625 32.03484375 -17.9765625 32.71484375 C-18.6365625 32.71484375 -19.2965625 32.71484375 -19.9765625 32.71484375 C-19.9765625 33.37484375 -19.9765625 34.03484375 -19.9765625 34.71484375 C-20.6365625 34.71484375 -21.2965625 34.71484375 -21.9765625 34.71484375 C-22.2446875 35.35421875 -22.5128125 35.99359375 -22.7890625 36.65234375 C-23.9765625 38.71484375 -23.9765625 38.71484375 -26.9765625 39.71484375 C-26.9765625 40.37484375 -26.9765625 41.03484375 -26.9765625 41.71484375 C-27.6365625 41.71484375 -28.2965625 41.71484375 -28.9765625 41.71484375 C-28.9765625 42.37484375 -28.9765625 43.03484375 -28.9765625 43.71484375 C-29.6365625 43.71484375 -30.2965625 43.71484375 -30.9765625 43.71484375 C-31.2446875 44.35421875 -31.5128125 44.99359375 -31.7890625 45.65234375 C-32.9765625 47.71484375 -32.9765625 47.71484375 -35.9765625 48.71484375 C-35.9765625 49.37484375 -35.9765625 50.03484375 -35.9765625 50.71484375 C-36.6365625 50.71484375 -37.2965625 50.71484375 -37.9765625 50.71484375 C-37.9765625 51.37484375 -37.9765625 52.03484375 -37.9765625 52.71484375 C-38.6365625 52.71484375 -39.2965625 52.71484375 -39.9765625 52.71484375 C-39.9765625 53.37484375 -39.9765625 54.03484375 -39.9765625 54.71484375 C-40.6365625 54.71484375 -41.2965625 54.71484375 -41.9765625 54.71484375 C-42.2446875 55.35421875 -42.5128125 55.99359375 -42.7890625 56.65234375 C-43.9765625 58.71484375 -43.9765625 58.71484375 -46.9765625 59.71484375 C-46.9765625 60.37484375 -46.9765625 61.03484375 -46.9765625 61.71484375 C-47.6365625 61.71484375 -48.2965625 61.71484375 -48.9765625 61.71484375 C-48.9765625 62.37484375 -48.9765625 63.03484375 -48.9765625 63.71484375 C-49.6365625 63.71484375 -50.2965625 63.71484375 -50.9765625 63.71484375 C-51.2446875 64.35421875 -51.5128125 64.99359375 -51.7890625 65.65234375 C-52.9765625 67.71484375 -52.9765625 67.71484375 -55.9765625 68.71484375 C-55.9765625 69.37484375 -55.9765625 70.03484375 -55.9765625 70.71484375 C-56.6365625 70.71484375 -57.2965625 70.71484375 -57.9765625 70.71484375 C-57.9765625 71.37484375 -57.9765625 72.03484375 -57.9765625 72.71484375 C-58.6365625 72.71484375 -59.2965625 72.71484375 -59.9765625 72.71484375 C-59.9765625 73.37484375 -59.9765625 74.03484375 -59.9765625 74.71484375 C-60.6365625 74.71484375 -61.2965625 74.71484375 -61.9765625 74.71484375 C-62.2446875 75.35421875 -62.5128125 75.99359375 -62.7890625 76.65234375 C-63.9765625 78.71484375 -63.9765625 78.71484375 -66.9765625 79.71484375 C-66.9765625 80.37484375 -66.9765625 81.03484375 -66.9765625 81.71484375 C-70.6207399 84.14429535 -72.68897522 83.8766395 -76.9765625 83.71484375 C-76.9765625 83.05484375 -76.9765625 82.39484375 -76.9765625 81.71484375 C-77.6365625 81.71484375 -78.2965625 81.71484375 -78.9765625 81.71484375 C-81.16035696 78.43915205 -81.51931889 77.51413846 -80.9765625 73.71484375 C-79.1015625 70.90234375 -79.1015625 70.90234375 -76.9765625 68.71484375 C-76.3165625 68.71484375 -75.6565625 68.71484375 -74.9765625 68.71484375 C-74.9765625 68.05484375 -74.9765625 67.39484375 -74.9765625 66.71484375 C-74.3165625 66.71484375 -73.6565625 66.71484375 -72.9765625 66.71484375 C-72.7496875 66.15796875 -72.5228125 65.60109375 -72.2890625 65.02734375 C-70.60106214 62.05324787 -68.50979733 59.9947551 -65.9765625 57.71484375 C-65.3165625 57.71484375 -64.6565625 57.71484375 -63.9765625 57.71484375 C-63.9765625 57.05484375 -63.9765625 56.39484375 -63.9765625 55.71484375 C-63.3165625 55.71484375 -62.6565625 55.71484375 -61.9765625 55.71484375 C-61.7496875 55.15796875 -61.5228125 54.60109375 -61.2890625 54.02734375 C-59.60106214 51.05324787 -57.50979733 48.9947551 -54.9765625 46.71484375 C-54.3165625 46.71484375 -53.6565625 46.71484375 -52.9765625 46.71484375 C-52.7496875 46.15796875 -52.5228125 45.60109375 -52.2890625 45.02734375 C-50.60106214 42.05324787 -48.50979733 39.9947551 -45.9765625 37.71484375 C-45.3165625 37.71484375 -44.6565625 37.71484375 -43.9765625 37.71484375 C-43.9765625 37.05484375 -43.9765625 36.39484375 -43.9765625 35.71484375 C-43.3165625 35.71484375 -42.6565625 35.71484375 -41.9765625 35.71484375 C-41.7496875 35.15796875 -41.5228125 34.60109375 -41.2890625 34.02734375 C-39.60106214 31.05324787 -37.50979733 28.9947551 -34.9765625 26.71484375 C-34.3165625 26.71484375 -33.6565625 26.71484375 -32.9765625 26.71484375 C-32.7496875 26.15796875 -32.5228125 25.60109375 -32.2890625 25.02734375 C-30.60106214 22.05324787 -28.50979733 19.9947551 -25.9765625 17.71484375 C-25.3165625 17.71484375 -24.6565625 17.71484375 -23.9765625 17.71484375 C-23.9765625 17.05484375 -23.9765625 16.39484375 -23.9765625 15.71484375 C-23.3165625 15.71484375 -22.6565625 15.71484375 -21.9765625 15.71484375 C-21.7496875 15.15796875 -21.5228125 14.60109375 -21.2890625 14.02734375 C-19.60106214 11.05324787 -17.50979733 8.9947551 -14.9765625 6.71484375 C-14.3165625 6.71484375 -13.6565625 6.71484375 -12.9765625 6.71484375 C-12.7290625 6.11671875 -12.4815625 5.51859375 -12.2265625 4.90234375 C-9.08858173 -0.5891226 -5.85416894 -0.55429839 0 0 Z " fill="#0000F3" transform="translate(151.9765625,21.28515625)"/>
<path d="M0 0 C2.623717 1.68206241 4.70522893 3.7762301 6.875 6 C7.46796875 6.55300781 8.0609375 7.10601562 8.671875 7.67578125 C11.71051252 10.72142024 13.39369342 12.87922868 13.546875 17.2734375 C13 21 13 21 10.375 23.625 C7 25 7 25 4 24.5625 C-2.39585077 21.23132772 -8.70915944 15.95319922 -11 8.9375 C-11 5.38082574 -10.15291317 3.79081337 -8 1 C-5.04411677 -0.47794161 -3.29423916 -0.43611677 0 0 Z " fill="#0000F5" transform="translate(54,62)"/>
</svg>
