<?xml version="1.0" encoding="UTF-8"?>
<svg version="1.1" xmlns="http://www.w3.org/2000/svg" width="360" height="357">
<path d="M0 0 C118.8 0 237.6 0 360 0 C360 117.81 360 235.62 360 357 C241.2 357 122.4 357 0 357 C0 239.19 0 121.38 0 0 Z " fill="#101112" transform="translate(0,0)"/>
<path d="M0 0 C118.8 0 237.6 0 360 0 C360 117.81 360 235.62 360 357 C241.2 357 122.4 357 0 357 C0 239.19 0 121.38 0 0 Z M14 14 C14 122.57 14 231.14 14 343 C123.56 343 233.12 343 346 343 C346 234.43 346 125.86 346 14 C236.44 14 126.88 14 14 14 Z " fill="#12ACFA" transform="translate(0,0)"/>
<path d="M0 0 C8.91 0 17.82 0 27 0 C28.49479422 4.46118759 29.9885753 8.92269123 31.47998047 13.38500977 C31.98560571 14.8969158 32.49177332 16.40864057 32.99853516 17.92016602 C35.78403845 26.22979119 38.51222288 34.54696984 41.06152344 42.93286133 C42.65445004 48.1388803 44.33184988 53.31769986 46 58.5 C48.35358905 65.83190062 50.69171861 73.16578222 52.92578125 80.53515625 C53.86062252 83.55044427 54.82135675 86.55502151 55.79296875 89.55859375 C56.11450928 90.55608643 56.4360498 91.5535791 56.76733398 92.58129883 C57.41294621 94.58101253 58.0620911 96.5795898 58.71508789 98.5769043 C59.01020264 99.4925415 59.30531738 100.40817871 59.609375 101.3515625 C59.87717773 102.17479004 60.14498047 102.99801758 60.42089844 103.84619141 C61 106 61 106 61 109 C61.66 109 62.32 109 63 109 C63.22300781 107.84757812 63.44601563 106.69515625 63.67578125 105.5078125 C65.14569009 98.90417298 67.3338405 92.52286773 69.45150757 86.105896 C70.70617837 82.30281331 71.94709382 78.49525496 73.1875 74.6875 C73.43304123 73.93435516 73.67858246 73.18121033 73.93156433 72.40524292 C75.93151656 66.25248313 77.83468 60.0736755 79.6875 53.875 C82.34890979 44.98150894 85.24709572 36.18148282 88.21801758 27.38696289 C90.4089876 20.87030088 92.42352705 14.34717756 94.2109375 7.70703125 C94.97547733 5.08412976 95.98533964 2.53665089 97 0 C105.91 0 114.82 0 124 0 C123.28398235 3.58008823 122.50551839 6.76571456 121.390625 10.20703125 C120.88728638 11.76744141 120.88728638 11.76744141 120.3737793 13.359375 C120.00293213 14.49890625 119.63208496 15.6384375 119.25 16.8125 C118.85659424 18.02808594 118.46318848 19.24367188 118.05786133 20.49609375 C117.18367492 23.19668365 116.30754466 25.8966338 115.43017578 28.59619141 C114.19039759 32.41159458 112.95520092 36.22846631 111.72097778 40.04566956 C106.0461229 57.59381824 100.32378523 75.12566868 94.5 92.625 C94.25655853 93.3579126 94.01311707 94.0908252 93.76229858 94.84594727 C90.95374244 103.29541601 88.06774934 111.70987684 85.046875 120.0859375 C82.94569519 125.934744 81.04883837 131.83259975 79.21362305 137.77001953 C76.99971465 144.92724422 74.63179326 151.98188465 72 159 C65.4 159 58.8 159 52 159 C37.09149144 116.82797382 37.09149144 116.82797382 31.29443359 97.62817383 C27.86730355 86.356419 24.03340129 75.23367909 20.15942383 64.109375 C17.64565061 56.88077527 15.22812586 49.64538141 13.01196289 42.31835938 C11.25033356 36.54174516 9.38979806 30.79677818 7.53564453 25.04931641 C6.86690616 22.97489293 6.20100097 20.89957258 5.53515625 18.82421875 C5.1043377 17.48692406 4.67335428 16.14968246 4.2421875 14.8125 C3.8591748 13.62269531 3.47616211 12.43289062 3.08154297 11.20703125 C2.40547896 9.20234123 1.67306837 7.21480402 0.85986328 5.26171875 C0 3 0 3 0 0 Z " fill="#11B0F7" transform="translate(118,100)"/>
<path d="M0 0 C4.71515238 2.50835141 8.01842349 6.02258033 10 11 C10.69380891 15.88893258 10.82064254 20.42404303 8 24.625 C7.34 25.40875 6.68 26.1925 6 27 C7.0770532 29.23695664 8.13858457 31.18655616 9.625 33.1875 C11.88878657 37.81797252 11.87525711 42.32717183 10.2734375 47.21875 C8.2860978 51.54888852 6.08103444 54.38395228 2 57 C-4.48309675 59.16103225 -12.44043388 59.19152216 -18.625 56.3125 C-23.49113944 51.57441686 -26.11149271 48.07464468 -26.3125 41.1875 C-26.29124953 36.32114316 -24.96919888 33.89707353 -22 30 C-21.60788553 26.11411144 -21.60788553 26.11411144 -23.5 23.9375 C-25.82850133 19.37751823 -25.7686451 15.01415215 -25 10 C-20.35758862 -0.58393376 -10.36417672 -1.55901811 0 0 Z " fill="#15ADF1" transform="translate(323,273)"/>
<path d="M0 0 C78.21 0 156.42 0 237 0 C237 79.53 237 159.06 237 241 C236.67 241 236.34 241 236 241 C235.0402267 227.8857038 234.86242694 214.83676035 234.88647461 201.69116211 C234.88675733 199.50149029 234.88659708 197.31181837 234.8860321 195.12214661 C234.88574746 189.23077075 234.89159004 183.33941562 234.89860606 177.44804454 C234.90489534 171.27148086 234.90544778 165.09491661 234.90663147 158.91835022 C234.90972844 147.24580901 234.91791964 135.57327727 234.92798096 123.90074021 C234.93919305 110.60192987 234.94466535 97.30312066 234.94967639 84.00430667 C234.96010376 56.66953255 234.97767131 29.33476681 235 2 C234.34782124 2.00092179 233.69564247 2.00184359 233.02370071 2.00279331 C211.76580657 2.03232162 190.50791152 2.05143748 169.25 2.0625 C168.03397228 2.06315145 168.03397228 2.06315145 166.79337835 2.06381607 C123.54713742 2.08635921 80.30623106 2.02933989 37.0625 1.5 C36.08479141 1.48804218 35.10708282 1.47608437 34.0997467 1.46376419 C22.73295367 1.32350759 11.36637977 1.17053031 0 1 C0 0.67 0 0.34 0 0 Z " fill="#0A191F" transform="translate(108,15)"/>
<path d="M0 0 C0 19.14 0 38.28 0 58 C-3.3 58 -6.6 58 -10 58 C-10 43.48 -10 28.96 -10 14 C-13.3 16.64 -16.6 19.28 -20 22 C-20.33 22 -20.66 22 -21 22 C-21.89788538 16.13200158 -22.53922632 11.10389594 -18.90234375 6.1328125 C-11.9842894 0.04181106 -10.13772495 0 0 0 Z " fill="#0FB0FA" transform="translate(282,273)"/>
<path d="M0 0 C3.36344489 2.48602449 4.80057749 3.91425523 5.5625 8.0625 C5 11 5 11 3.5 13.375 C-0.26897129 15.82483134 -2.54334931 15.5659239 -7 15 C-9.91781637 12.72045596 -9.97820387 11.17436907 -10.4375 7.5 C-10 4 -10 4 -8.375 1.5625 C-5.24316508 -0.49791771 -3.68455227 -0.6767545 0 0 Z " fill="#0B1C24" transform="translate(318,306)"/>
<path d="M0 0 C0 19.14 0 38.28 0 58 C-3.3 58 -6.6 58 -10 58 C-10 43.48 -10 28.96 -10 14 C-10.66 13.67 -11.32 13.34 -12 13 C-11.01 13 -10.02 13 -9 13 C-9 27.19 -9 41.38 -9 56 C-6.36 56 -3.72 56 -1 56 C-1 37.85 -1 19.7 -1 1 C-8.53971145 1.0947415 -8.53971145 1.0947415 -11 4.0625 C-11.33 4.701875 -11.66 5.34125 -12 6 C-13.32 5.67 -14.64 5.34 -16 5 C-10.35965012 -0.9372104 -9.31802923 0 0 0 Z " fill="#2EAFE7" transform="translate(282,273)"/>
<path d="M0 0 C1.9375 1.125 1.9375 1.125 3 3 C3.42030443 6.29238472 3.295454 8.33957342 1.9375 11.375 C0 13 0 13 -3.5 13.4375 C-7 13 -7 13 -8.9375 11.9375 C-10.6140629 8.88023824 -10.36528977 6.4093712 -10 3 C-7.77766882 -1.05248626 -4.20052866 -0.45005664 0 0 Z " fill="#0C1B22" transform="translate(319,283)"/>
<path d="M0 0 C0 14.52 0 29.04 0 44 C3.3 44 6.6 44 10 44 C10 44.66 10 45.32 10 46 C8.37509046 46.02698189 6.75005367 46.04638757 5.125 46.0625 C4.22007812 46.07410156 3.31515625 46.08570313 2.3828125 46.09765625 C0 46 0 46 -2 45 C-2.33 32.79 -2.66 20.58 -3 8 C-4.32 8 -5.64 8 -7 8 C-7.99 7.67 -8.98 7.34 -10 7 C-8.71372289 5.82739389 -7.42080217 4.6620717 -6.125 3.5 C-5.04605469 2.52546875 -5.04605469 2.52546875 -3.9453125 1.53125 C-2 0 -2 0 0 0 Z " fill="#0A2E3E" transform="translate(272,287)"/>
<path d="M0 0 C8.91 0 17.82 0 27 0 C27.33 1.98 27.66 3.96 28 6 C27.67 5.01 27.34 4.02 27 3 C19.08 2.67 11.16 2.34 3 2 C3 3.98 3 5.96 3 8 C1 5 1 5 0 0 Z " fill="#209DD2" transform="translate(118,100)"/>
<path d="M0 0 C8.91 0 17.82 0 27 0 C26 5 26 5 24 8 C24.33 6.02 24.66 4.04 25 2 C12.625 2.495 12.625 2.495 0 3 C0 2.01 0 1.02 0 0 Z " fill="#209ED3" transform="translate(215,100)"/>
<path d="M0 0 C1.74593458 2.61890187 2.5793104 4.40980757 3.5078125 7.34375 C3.90419922 8.59478516 3.90419922 8.59478516 4.30859375 9.87109375 C4.57800781 10.73863281 4.84742188 11.60617188 5.125 12.5 C5.54072266 13.80130859 5.54072266 13.80130859 5.96484375 15.12890625 C8 21.61534021 8 21.61534021 8 25 C8.66 25 9.32 25 10 25 C10 25.99 10 26.98 10 28 C8.68 27.67 7.36 27.34 6 27 C3.70387244 17.58997722 3.70387244 17.58997722 4 13 C3.34 13 2.68 13 2 13 C1.66127487 11.58461283 1.32925376 10.16762037 1 8.75 C0.814375 7.96109375 0.62875 7.1721875 0.4375 6.359375 C0 4 0 4 0 0 Z " fill="#2493C4" transform="translate(171,184)"/>
<path d="M0 0 C0.66 0.33 1.32 0.66 2 1 C0.92610076 3.23040612 -0.11467539 5.14996013 -1.625 7.125 C-4.23048789 12.57283832 -3.53458079 19.24532204 -2 25 C-2.66 25 -3.32 25 -4 25 C-6.79194491 20.15912777 -6.85923181 15.4489617 -6 10 C-4.35146266 6.39142844 -2.33380791 3.20204003 0 0 Z " fill="#032434" transform="translate(301,299)"/>
<path d="M0 0 C0.33 0 0.66 0 1 0 C1.66 5.28 2.32 10.56 3 16 C2.34 16.33 1.68 16.66 1 17 C-1.55311917 12.21290155 -1.40253336 7.28910111 -1 2 C-0.67 1.34 -0.34 0.68 0 0 Z " fill="#28A0D6" transform="translate(298,307)"/>
<path d="M0 0 C0.33 0.66 0.66 1.32 1 2 C0.34 2 -0.32 2 -1 2 C-0.81584568 4.94091587 -0.81584568 4.94091587 0 8 C1.95163118 9.43637698 1.95163118 9.43637698 4 10 C-0.875 14 -0.875 14 -2 14 C-2 9.71 -2 5.42 -2 1 C-1.34 0.67 -0.68 0.34 0 0 Z " fill="#2EA2D4" transform="translate(263,281)"/>
<path d="M0 0 C0.66 0 1.32 0 2 0 C2.05410687 1.77049689 2.09284119 3.54146849 2.125 5.3125 C2.14820313 6.29863281 2.17140625 7.28476562 2.1953125 8.30078125 C2 11 2 11 0 14 C-0.66 14 -1.32 14 -2 14 C-1.34 9.38 -0.68 4.76 0 0 Z " fill="#041E29" transform="translate(333,284)"/>
<path d="M0 0 C0 0.33 0 0.66 0 1 C-0.92232422 1.03867187 -0.92232422 1.03867187 -1.86328125 1.078125 C-6.99254591 1.2814648 -6.99254591 1.2814648 -11.0625 4.0625 C-11.371875 4.701875 -11.68125 5.34125 -12 6 C-13.32 5.67 -14.64 5.34 -16 5 C-10.92092974 -0.34638974 -7.21564884 -0.6417079 0 0 Z " fill="#29A2D8" transform="translate(282,273)"/>
<path d="M0 0 C1.86610926 2.79916389 2.68785383 4.81938269 3.625 8 C4.01558594 9.299375 4.01558594 9.299375 4.4140625 10.625 C5 13 5 13 5 16 C4.34 16 3.68 16 3 16 C3 14.35 3 12.7 3 11 C2.34 11 1.68 11 1 11 C0.67 7.37 0.34 3.74 0 0 Z " fill="#2393BF" transform="translate(160,149)"/>
<path d="M0 0 C0.33 0 0.66 0 1 0 C1.29341888 5.67276511 1.00559652 8.99067246 -2 14 C-2.66 14 -3.32 14 -4 14 C-3.52188823 12.22888156 -3.0424722 10.45811517 -2.5625 8.6875 C-2.29566406 7.70136719 -2.02882812 6.71523437 -1.75390625 5.69921875 C-1.21920575 3.78482474 -0.62855462 1.88566385 0 0 Z " fill="#249DD2" transform="translate(192,172)"/>
<path d="M0 0 C1.46098063 5.05809202 0.92367167 9.26349726 -1.5625 13.9375 C-2.036875 14.618125 -2.51125 15.29875 -3 16 C-4.57159226 12.85681547 -3.04018399 10.07066611 -2.0625 6.875 C-1.86720703 6.21628906 -1.67191406 5.55757813 -1.47070312 4.87890625 C-0.98695014 3.25066448 -0.49430925 1.62506818 0 0 Z " fill="#2497C6" transform="translate(213,105)"/>
<path d="M0 0 C5.94553641 5.79308675 5.94553641 5.79308675 6.09765625 9.1640625 C6.08605469 9.97617187 6.07445312 10.78828125 6.0625 11.625 C6.05347656 12.44226563 6.04445313 13.25953125 6.03515625 14.1015625 C6.02355469 14.72804688 6.01195312 15.35453125 6 16 C5.67 16 5.34 16 5 16 C4.896875 14.96875 4.79375 13.9375 4.6875 12.875 C4.00413494 9.02330603 2.85855738 6.40735519 1 3 C0.67 2.01 0.34 1.02 0 0 Z " fill="#2598CC" transform="translate(328,302)"/>
<path d="M0 0 C0.99 0.495 0.99 0.495 2 1 C2.625 4.0625 2.625 4.0625 3 7 C3.66 7 4.32 7 5 7 C5 7.99 5 8.98 5 10 C3.68 9.67 2.36 9.34 1 9 C0.67 6.03 0.34 3.06 0 0 Z " fill="#1A98CE" transform="translate(176,202)"/>
<path d="M0 0 C0.33 0 0.66 0 1 0 C2.14507772 5.28497409 2.14507772 5.28497409 2 8 C-0.4375 10.5 -0.4375 10.5 -3 12 C-2.01 8.04 -1.02 4.08 0 0 Z " fill="#082838" transform="translate(234,123)"/>
<path d="M0 0 C0.33 0 0.66 0 1 0 C1 2.64 1 5.28 1 8 C0.34 8 -0.32 8 -1 8 C-1 9.32 -1 10.64 -1 12 C-1.66 12 -2.32 12 -3 12 C-2.01 8.04 -1.02 4.08 0 0 Z " fill="#2396C8" transform="translate(200,146)"/>
<path d="M0 0 C0.66 0.33 1.32 0.66 2 1 C1.0479279 2.00596297 0.08812654 3.00461563 -0.875 4 C-1.40867187 4.556875 -1.94234375 5.11375 -2.4921875 5.6875 C-4 7 -4 7 -6 7 C-5.67 6.01 -5.34 5.02 -5 4 C-4.34 4 -3.68 4 -3 4 C-3 3.01 -3 2.02 -3 1 C-2.01 0.67 -1.02 0.34 0 0 Z " fill="#06202F" transform="translate(267,275)"/>
<path d="M0 0 C2.45823172 3.68734758 3.01242616 6.69699971 4 11 C3.34 10.67 2.68 10.34 2 10 C2 9.34 2 8.68 2 8 C1.34 8 0.68 8 0 8 C0 5.36 0 2.72 0 0 Z " fill="#062F43" transform="translate(121,111)"/>
<path d="M0 0 C0.66 0.66 1.32 1.32 2 2 C1.54545455 7.45454545 1.54545455 7.45454545 -1 10 C-1.125 3.375 -1.125 3.375 0 0 Z " fill="#0E1E27" transform="translate(242,100)"/>
<path d="M0 0 C2.45823172 3.68734758 3.01242616 6.69699971 4 11 C2 9.4375 2 9.4375 0 7 C-0.25 3.25 -0.25 3.25 0 0 Z " fill="#032C41" transform="translate(163,239)"/>
</svg>
