<svg width="470" height="236" viewBox="0 0 470 236" fill="none" xmlns="http://www.w3.org/2000/svg">
<path d="M190 1.94226C190.66 1.94226 191.32 1.94226 192 1.94226C192 2.60226 192 3.26226 192 3.94226C192.581 4.20112 193.162 4.45998 193.761 4.72668C196.174 6.0371 197.85 7.49073 199.828 9.39148C200.905 10.4173 200.905 10.4173 202.004 11.4637C203.116 12.5359 203.116 12.5359 204.25 13.6298C209.151 18.3264 214.081 22.9504 219.214 27.3947C221.504 29.3793 223.753 31.4081 226 33.4423C228.937 36.0934 231.886 38.7252 234.875 41.3173C238.842 44.7708 242.708 48.3323 246.577 51.8949C249.354 54.4475 252.149 56.9719 255 59.4423C258.876 62.8041 262.652 66.2731 266.428 69.746C272.514 75.3403 278.633 80.8972 284.875 86.3173C288.842 89.7708 292.708 93.3323 296.577 96.8949C299.354 99.4475 302.149 101.972 305 104.442C308.39 107.381 311.699 110.403 315 113.442C318.927 117.058 322.89 120.624 326.926 124.118C330.496 127.258 333.985 130.489 337.484 133.708C340.174 136.159 340.174 136.159 344 138.942C344.33 93.7323 344.66 48.5223 345 1.94226C357.54 1.94226 370.08 1.94226 383 1.94226C383 77.8423 383 153.742 383 231.942C378.887 229.886 376.033 227.378 372.75 224.255C371.579 223.156 370.407 222.059 369.234 220.962C368.673 220.435 368.111 219.909 367.533 219.367C365.722 217.685 363.872 216.055 362 214.442C358.426 211.353 354.963 208.154 351.5 204.942C347.394 201.135 343.259 197.379 339.023 193.716C336.485 191.491 333.993 189.217 331.5 186.942C327.708 183.484 323.883 180.073 320.012 176.704C313.881 171.336 307.873 165.832 301.875 160.317C297.957 156.716 294.003 153.164 289.984 149.677C285.074 145.385 280.261 140.984 275.422 136.614C271.657 133.219 267.888 129.832 264.062 126.505C259.864 122.849 255.76 119.092 251.648 115.341C249.494 113.39 247.323 111.468 245.125 109.567C240.978 105.964 236.959 102.229 232.929 98.4967C226.066 92.1435 219.114 85.897 212.062 79.7548C208.836 76.9199 205.656 74.0348 202.469 71.1571C199.536 68.5258 196.571 65.9332 193.594 63.3524C190.025 60.1946 190.025 60.1946 189.759 57.4998C189.764 56.4739 189.768 55.448 189.773 54.391C189.773 53.2299 189.773 52.0689 189.773 50.8727C189.784 49.6143 189.794 48.3559 189.804 47.0594C189.807 45.7749 189.81 44.4904 189.813 43.1669C189.821 39.7506 189.84 36.3345 189.862 32.9183C189.883 29.4328 189.892 25.9473 189.902 22.4618C189.924 15.6219 189.958 8.78208 190 1.94226Z" fill="#05B0A0"/>
<path d="M170 1.94229C164.824 8.20922 159.159 13.9184 153.405 19.651C152.34 20.7159 151.275 21.7809 150.21 22.8462C147.337 25.7198 144.46 28.5904 141.583 31.4604C138.571 34.4668 135.561 37.4761 132.551 40.485C126.858 46.1746 121.163 51.8616 115.467 57.5477C108.978 64.0246 102.493 70.5044 96.0082 76.9844C82.6753 90.3069 69.3388 103.626 56 116.942C61.1727 123.208 66.8388 128.909 72.5952 134.635C73.6603 135.698 74.7253 136.762 75.7899 137.825C78.0704 140.103 80.3524 142.378 82.6355 144.653C86.2429 148.247 89.8464 151.844 93.4494 155.443C101.088 163.071 108.731 170.694 116.375 178.317C124.648 186.569 132.921 194.82 141.188 203.077C144.774 206.658 148.362 210.236 151.952 213.812C154.175 216.028 156.397 218.247 158.618 220.466C159.653 221.498 160.688 222.53 161.724 223.561C163.132 224.961 164.536 226.365 165.94 227.769C166.729 228.555 167.518 229.342 168.33 230.152C170 231.942 170 231.942 170 232.942C118.334 236.572 118.334 236.572 108.066 228.559C103.758 224.547 100.267 220.102 97.3196 215.005C96.0158 212.662 96.0158 212.662 93 210.942C93 210.282 93 209.622 93 208.942C92.01 208.612 91.02 208.282 90 207.942C90 207.282 90 206.622 90 205.942C89.1259 205.556 89.1259 205.556 88.2341 205.161C85.8067 203.837 84.2044 202.393 82.2541 200.437C81.1604 199.347 81.1604 199.347 80.0446 198.236C79.2549 197.439 78.4651 196.642 77.6514 195.821C76.812 194.982 75.9726 194.143 75.1078 193.278C72.811 190.98 70.5188 188.678 68.2285 186.374C65.8325 183.965 63.4307 181.562 61.0296 179.159C56.4854 174.608 51.9463 170.053 47.409 165.495C42.2425 160.306 37.0703 155.123 31.8976 149.94C21.2587 139.281 10.627 128.614 0 117.942C3.43912 113.863 6.92252 109.893 10.6885 106.109C11.5625 105.228 12.4365 104.348 13.337 103.441C14.7248 102.051 14.7248 102.051 16.1406 100.634C17.1138 99.6573 18.0869 98.6808 19.06 97.7042C21.0854 95.6729 23.1129 93.6435 25.1416 91.6154C27.7449 89.0122 30.3412 86.4021 32.9359 83.7903C34.9365 81.7786 36.9415 79.7716 38.9479 77.7657C39.908 76.8044 40.8665 75.8415 41.8233 74.877C43.1538 73.5367 44.4913 72.2033 45.8291 70.8703C46.5882 70.1097 47.3473 69.3492 48.1295 68.5656C50 66.9423 50 66.9423 52 66.9423C52.495 65.4573 52.495 65.4573 53 63.9423C53.66 63.9423 54.32 63.9423 55 63.9423C55.2681 63.3029 55.5362 62.6635 55.8125 62.0048C57 59.9423 57 59.9423 60 58.9423C60.33 57.9523 60.66 56.9623 61 55.9423C61.66 55.9423 62.32 55.9423 63 55.9423C63.33 54.9523 63.66 53.9623 64 52.9423C64.66 52.9423 65.32 52.9423 66 52.9423C66 52.2823 66 51.6223 66 50.9423C67.375 49.3173 67.375 49.3173 69 47.9423C69.66 47.9423 70.32 47.9423 71 47.9423C71.33 46.9523 71.66 45.9623 72 44.9423C73.6101 43.419 73.6101 43.419 75.6401 41.7897C79.2798 38.7018 82.1333 35.4499 85.0161 31.661C109.243 -0.0149632 131.618 -3.09772 170 1.94229Z" fill="#05B0A0"/>
<path d="M428 1.94226C430.31 3.92226 432.62 5.90226 435 7.94226C436.813 9.35834 438.627 10.7744 440.442 12.1882C453.889 22.8723 466.897 34.0803 469.072 51.9127C469.897 61.6842 469.566 71.4771 469.143 81.2597C468.946 86.6128 468.931 91.9667 468.894 97.3228C468.799 107.413 468.546 117.493 468.233 127.579C467.883 139.082 467.715 150.586 467.56 162.093C467.238 185.717 466.671 209.326 466 232.942C453.46 232.942 440.92 232.942 428 232.942C428 156.712 428 80.4823 428 1.94226Z" fill="#04B0A0"/>
<path d="M204.5 213.442C205.342 213.44 206.184 213.437 207.051 213.434C211.692 213.508 215.45 213.622 219 216.942C219.594 219.536 219.594 219.536 219.5 222.442C219.49 223.401 219.479 224.36 219.469 225.349C218.937 228.291 218.379 229.192 216 230.942C212.006 232.274 208.309 232.244 204.125 232.317C202.92 232.373 202.92 232.373 201.691 232.431C197.354 232.495 195.545 232.351 191.969 229.669C189.314 225.992 189.314 225.992 189.375 222.942C189.362 222.303 189.349 221.664 189.336 221.005C191.797 213.36 197.663 213.212 204.5 213.442Z" fill="#1BB7A8"/>
<path d="M204.875 132.692C205.678 132.672 206.481 132.651 207.309 132.63C211.922 132.599 215.452 132.635 219 135.942C219.594 138.536 219.594 138.536 219.5 141.442C219.49 142.401 219.479 143.36 219.469 144.349C218.937 147.291 218.379 148.192 216 149.942C212.194 151.211 208.591 151.165 204.625 151.192C203.87 151.213 203.114 151.234 202.336 151.255C197.727 151.287 194.749 150.924 191 147.942C189.408 144.757 189.609 141.409 190 137.942C193.265 131.878 198.777 132.731 204.875 132.692Z" fill="#18B6A7"/>
<path d="M199.184 217.809C200.029 217.808 200.874 217.807 201.744 217.805C202.633 217.809 203.522 217.813 204.438 217.817C205.322 217.813 206.207 217.809 207.119 217.805C207.965 217.807 208.812 217.808 209.684 217.809C210.463 217.811 211.242 217.812 212.045 217.813C214 217.942 214 217.942 216 218.942C216.125 222.317 216.125 222.317 216 225.942C214 227.942 214 227.942 212.045 228.185C211.266 228.181 210.486 228.177 209.684 228.173C208.837 228.171 207.991 228.169 207.119 228.167C206.234 228.155 205.349 228.142 204.438 228.13C203.549 228.129 202.66 228.128 201.744 228.128C195.14 228.082 195.14 228.082 194 226.942C193.867 225.13 193.867 225.13 193.875 222.942C193.872 222.22 193.87 221.498 193.867 220.755C194.126 217.223 196.13 217.814 199.184 217.809Z" fill="#13161D"/>
<path d="M199.184 136.809C200.029 136.808 200.874 136.807 201.744 136.805C202.633 136.809 203.522 136.813 204.438 136.817C205.322 136.813 206.207 136.809 207.119 136.805C207.965 136.807 208.812 136.808 209.684 136.809C210.463 136.811 211.242 136.812 212.045 136.813C214 136.942 214 136.942 216 137.942C216.125 141.317 216.125 141.317 216 144.942C214 146.942 214 146.942 212.045 147.185C211.266 147.181 210.486 147.177 209.684 147.173C208.837 147.171 207.991 147.169 207.119 147.167C206.234 147.155 205.349 147.142 204.438 147.13C203.549 147.129 202.66 147.128 201.744 147.128C195.14 147.082 195.14 147.082 194 145.942C193.867 144.13 193.867 144.13 193.875 141.942C193.872 141.22 193.87 140.498 193.867 139.755C194.126 136.223 196.13 136.814 199.184 136.809Z" fill="#13161D"/>
<path d="M191 110.942C200.24 110.942 209.48 110.942 219 110.942C219 112.262 219 113.582 219 114.942C211.41 114.942 203.82 114.942 196 114.942C198.475 118.407 198.475 118.407 201 121.942C198.812 122.317 198.812 122.317 196 121.942C193.188 119.255 193.188 119.255 191 115.942C191 114.292 191 112.642 191 110.942Z" fill="#0CB2A3"/>
<path d="M191 191.942C200.24 191.942 209.48 191.942 219 191.942C219 193.262 219 194.582 219 195.942C211.41 196.272 203.82 196.602 196 196.942C197.65 198.922 199.3 200.902 201 202.942C198.812 203.317 198.812 203.317 196 202.942C193.188 200.255 193.188 200.255 191 196.942C191 195.292 191 193.642 191 191.942Z" fill="#12B4A5"/>
<path d="M191 164.942C200.24 164.942 209.48 164.942 219 164.942C219 166.262 219 167.582 219 168.942C211.41 169.272 203.82 169.602 196 169.942C197.65 171.922 199.3 173.902 201 175.942C198.812 176.317 198.812 176.317 196 175.942C193.188 173.255 193.188 173.255 191 169.942C191 168.292 191 166.642 191 164.942Z" fill="#17B5A7"/>
</svg>
